<?xml version="1.0" encoding="utf-8" standalone="no"?>
<!DOCTYPE svg PUBLIC "-//W3C//DTD SVG 1.1//EN"
  "http://www.w3.org/Graphics/SVG/1.1/DTD/svg11.dtd">
<!-- Created with matplotlib (https://matplotlib.org/) -->
<svg height="288pt" version="1.1" viewBox="0 0 432 288" width="432pt" xmlns="http://www.w3.org/2000/svg" xmlns:xlink="http://www.w3.org/1999/xlink">
 <defs>
  <style type="text/css">
*{stroke-linecap:butt;stroke-linejoin:round;}
  </style>
 </defs>
 <g id="figure_1">
  <g id="patch_1">
   <path d="M 0 288 
L 432 288 
L 432 0 
L 0 0 
z
" style="fill:#ffffff;"/>
  </g>
  <g id="axes_1">
   <g id="patch_2">
    <path d="M 54 252 
L 388.8 252 
L 388.8 25.92 
L 54 25.92 
z
" style="fill:#ffffff;"/>
   </g>
   <g id="matplotlib.axis_1">
    <g id="xtick_1">
     <g id="line2d_1">
      <path clip-path="url(#pb75ba5f79f)" d="M 54 252 
L 54 25.92 
" style="fill:none;stroke:#eeeeee;stroke-linecap:square;stroke-width:0.8;"/>
     </g>
     <g id="line2d_2">
      <defs>
       <path d="M 0 0 
L 0 3.5 
" id="m59b1abf594" style="stroke:#555555;stroke-width:0.8;"/>
      </defs>
      <g>
       <use style="fill:#555555;stroke:#555555;stroke-width:0.8;" x="54" xlink:href="#m59b1abf594" y="252"/>
      </g>
     </g>
     <g id="text_1">
      <!-- 0 -->
      <defs>
       <path d="M 13.203125 34.90625 
Q 13.203125 37.5 13.25 40.640625 
Q 13.296875 43.796875 13.75 46.9375 
Q 14.203125 50.09375 15.046875 53.09375 
Q 15.90625 56.09375 17.546875 58.34375 
Q 19.203125 60.59375 21.703125 62 
Q 24.203125 63.40625 27.796875 63.40625 
Q 31.40625 63.40625 33.90625 62 
Q 36.40625 60.59375 38.046875 58.34375 
Q 39.703125 56.09375 40.546875 53.09375 
Q 41.40625 50.09375 41.84375 46.9375 
Q 42.296875 43.796875 42.34375 40.640625 
Q 42.40625 37.5 42.40625 34.90625 
Q 42.40625 30.90625 42.15625 25.953125 
Q 41.90625 21 40.546875 16.640625 
Q 39.203125 12.296875 36.203125 9.296875 
Q 33.203125 6.296875 27.796875 6.296875 
Q 22.40625 6.296875 19.40625 9.296875 
Q 16.40625 12.296875 15.046875 16.640625 
Q 13.703125 21 13.453125 25.953125 
Q 13.203125 30.90625 13.203125 34.90625 
z
M 4.203125 34.796875 
Q 4.203125 30.90625 4.390625 26.703125 
Q 4.59375 22.5 5.390625 18.5 
Q 6.203125 14.5 7.703125 10.953125 
Q 9.203125 7.40625 11.796875 4.703125 
Q 14.40625 2 18.34375 0.453125 
Q 22.296875 -1.09375 27.796875 -1.09375 
Q 33.40625 -1.09375 37.296875 0.453125 
Q 41.203125 2 43.796875 4.703125 
Q 46.40625 7.40625 47.90625 10.953125 
Q 49.40625 14.5 50.203125 18.5 
Q 51 22.5 51.203125 26.703125 
Q 51.40625 30.90625 51.40625 34.796875 
Q 51.40625 38.703125 51.203125 42.890625 
Q 51 47.09375 50.203125 51.09375 
Q 49.40625 55.09375 47.90625 58.6875 
Q 46.40625 62.296875 43.796875 65 
Q 41.203125 67.703125 37.25 69.296875 
Q 33.296875 70.90625 27.796875 70.90625 
Q 22.296875 70.90625 18.34375 69.296875 
Q 14.40625 67.703125 11.796875 65 
Q 9.203125 62.296875 7.703125 58.6875 
Q 6.203125 55.09375 5.390625 51.09375 
Q 4.59375 47.09375 4.390625 42.890625 
Q 4.203125 38.703125 4.203125 34.796875 
z
" id="HelveticaNeue-48"/>
      </defs>
      <g style="fill:#555555;" transform="translate(51.220312 266.140625)scale(0.1 -0.1)">
       <use xlink:href="#HelveticaNeue-48"/>
      </g>
     </g>
    </g>
    <g id="xtick_2">
     <g id="line2d_3">
      <path clip-path="url(#pb75ba5f79f)" d="M 116.101461 252 
L 116.101461 25.92 
" style="fill:none;stroke:#eeeeee;stroke-linecap:square;stroke-width:0.8;"/>
     </g>
     <g id="line2d_4">
      <g>
       <use style="fill:#555555;stroke:#555555;stroke-width:0.8;" x="116.101461" xlink:href="#m59b1abf594" y="252"/>
      </g>
     </g>
     <g id="text_2">
      <!-- 2 -->
      <defs>
       <path d="M 4.40625 45.796875 
L 12.90625 45.796875 
Q 12.796875 49 13.546875 52.140625 
Q 14.296875 55.296875 16 57.796875 
Q 17.703125 60.296875 20.34375 61.84375 
Q 23 63.40625 26.703125 63.40625 
Q 29.5 63.40625 32 62.5 
Q 34.5 61.59375 36.34375 59.890625 
Q 38.203125 58.203125 39.296875 55.84375 
Q 40.40625 53.5 40.40625 50.59375 
Q 40.40625 46.90625 39.25 44.09375 
Q 38.09375 41.296875 35.84375 38.890625 
Q 33.59375 36.5 30.1875 34.140625 
Q 26.796875 31.796875 22.296875 29 
Q 18.59375 26.796875 15.1875 24.296875 
Q 11.796875 21.796875 9.09375 18.5 
Q 6.40625 15.203125 4.65625 10.75 
Q 2.90625 6.296875 2.40625 0 
L 48.703125 0 
L 48.703125 7.5 
L 12.296875 7.5 
Q 12.90625 10.796875 14.84375 13.34375 
Q 16.796875 15.90625 19.546875 18.09375 
Q 22.296875 20.296875 25.59375 22.25 
Q 28.90625 24.203125 32.203125 26.203125 
Q 35.5 28.296875 38.59375 30.59375 
Q 41.703125 32.90625 44.09375 35.75 
Q 46.5 38.59375 47.953125 42.1875 
Q 49.40625 45.796875 49.40625 50.5 
Q 49.40625 55.5 47.65625 59.296875 
Q 45.90625 63.09375 42.90625 65.640625 
Q 39.90625 68.203125 35.84375 69.546875 
Q 31.796875 70.90625 27.203125 70.90625 
Q 21.59375 70.90625 17.1875 69 
Q 12.796875 67.09375 9.84375 63.75 
Q 6.90625 60.40625 5.5 55.796875 
Q 4.09375 51.203125 4.40625 45.796875 
z
" id="HelveticaNeue-50"/>
      </defs>
      <g style="fill:#555555;" transform="translate(113.321774 266.140625)scale(0.1 -0.1)">
       <use xlink:href="#HelveticaNeue-50"/>
      </g>
     </g>
    </g>
    <g id="xtick_3">
     <g id="line2d_5">
      <path clip-path="url(#pb75ba5f79f)" d="M 178.202922 252 
L 178.202922 25.92 
" style="fill:none;stroke:#eeeeee;stroke-linecap:square;stroke-width:0.8;"/>
     </g>
     <g id="line2d_6">
      <g>
       <use style="fill:#555555;stroke:#555555;stroke-width:0.8;" x="178.202922" xlink:href="#m59b1abf594" y="252"/>
      </g>
     </g>
     <g id="text_3">
      <!-- 4 -->
      <defs>
       <path d="M 33.90625 24.09375 
L 10.09375 24.09375 
L 33.703125 58.796875 
L 33.90625 58.796875 
z
M 41.90625 24.09375 
L 41.90625 70.90625 
L 35.09375 70.90625 
L 2.796875 24.796875 
L 2.796875 16.59375 
L 33.90625 16.59375 
L 33.90625 0 
L 41.90625 0 
L 41.90625 16.59375 
L 51.5 16.59375 
L 51.5 24.09375 
z
" id="HelveticaNeue-52"/>
      </defs>
      <g style="fill:#555555;" transform="translate(175.423235 266.140625)scale(0.1 -0.1)">
       <use xlink:href="#HelveticaNeue-52"/>
      </g>
     </g>
    </g>
    <g id="xtick_4">
     <g id="line2d_7">
      <path clip-path="url(#pb75ba5f79f)" d="M 240.304383 252 
L 240.304383 25.92 
" style="fill:none;stroke:#eeeeee;stroke-linecap:square;stroke-width:0.8;"/>
     </g>
     <g id="line2d_8">
      <g>
       <use style="fill:#555555;stroke:#555555;stroke-width:0.8;" x="240.304383" xlink:href="#m59b1abf594" y="252"/>
      </g>
     </g>
     <g id="text_4">
      <!-- 6 -->
      <defs>
       <path d="M 41.40625 52.796875 
L 49.90625 52.796875 
Q 49.09375 61.59375 43.890625 66.25 
Q 38.703125 70.90625 29.90625 70.90625 
Q 22.296875 70.90625 17.296875 67.703125 
Q 12.296875 64.5 9.296875 59.203125 
Q 6.296875 53.90625 5.046875 47.046875 
Q 3.796875 40.203125 3.796875 32.90625 
Q 3.796875 27.296875 4.640625 21.296875 
Q 5.5 15.296875 8.09375 10.296875 
Q 10.703125 5.296875 15.5 2.09375 
Q 20.296875 -1.09375 28.203125 -1.09375 
Q 34.90625 -1.09375 39.453125 1.15625 
Q 44 3.40625 46.75 6.84375 
Q 49.5 10.296875 50.703125 14.5 
Q 51.90625 18.703125 51.90625 22.59375 
Q 51.90625 27.5 50.40625 31.703125 
Q 48.90625 35.90625 46.15625 39 
Q 43.40625 42.09375 39.34375 43.84375 
Q 35.296875 45.59375 30.203125 45.59375 
Q 24.40625 45.59375 19.953125 43.390625 
Q 15.5 41.203125 12.5 36.296875 
L 12.296875 36.5 
Q 12.40625 40.59375 13.09375 45.296875 
Q 13.796875 50 15.640625 54.046875 
Q 17.5 58.09375 20.796875 60.75 
Q 24.09375 63.40625 29.5 63.40625 
Q 34.59375 63.40625 37.6875 60.5 
Q 40.796875 57.59375 41.40625 52.796875 
z
M 28.59375 38.09375 
Q 32.203125 38.09375 34.890625 36.796875 
Q 37.59375 35.5 39.390625 33.34375 
Q 41.203125 31.203125 42.046875 28.25 
Q 42.90625 25.296875 42.90625 22 
Q 42.90625 18.90625 41.953125 16.046875 
Q 41 13.203125 39.203125 11 
Q 37.40625 8.796875 34.75 7.546875 
Q 32.09375 6.296875 28.59375 6.296875 
Q 25.09375 6.296875 22.34375 7.546875 
Q 19.59375 8.796875 17.75 10.890625 
Q 15.90625 13 14.90625 15.890625 
Q 13.90625 18.796875 13.90625 22.09375 
Q 13.90625 25.40625 14.84375 28.34375 
Q 15.796875 31.296875 17.6875 33.4375 
Q 19.59375 35.59375 22.296875 36.84375 
Q 25 38.09375 28.59375 38.09375 
z
" id="HelveticaNeue-54"/>
      </defs>
      <g style="fill:#555555;" transform="translate(237.524696 266.140625)scale(0.1 -0.1)">
       <use xlink:href="#HelveticaNeue-54"/>
      </g>
     </g>
    </g>
    <g id="xtick_5">
     <g id="line2d_9">
      <path clip-path="url(#pb75ba5f79f)" d="M 302.405844 252 
L 302.405844 25.92 
" style="fill:none;stroke:#eeeeee;stroke-linecap:square;stroke-width:0.8;"/>
     </g>
     <g id="line2d_10">
      <g>
       <use style="fill:#555555;stroke:#555555;stroke-width:0.8;" x="302.405844" xlink:href="#m59b1abf594" y="252"/>
      </g>
     </g>
     <g id="text_5">
      <!-- 8 -->
      <defs>
       <path d="M 15.5 52.5 
Q 15.5 55.203125 16.5 57.203125 
Q 17.5 59.203125 19.140625 60.59375 
Q 20.796875 62 23.09375 62.703125 
Q 25.40625 63.40625 27.90625 63.40625 
Q 33.09375 63.40625 36.4375 60.65625 
Q 39.796875 57.90625 39.796875 52.5 
Q 39.796875 47.09375 36.5 44.09375 
Q 33.203125 41.09375 28.09375 41.09375 
Q 25.5 41.09375 23.203125 41.796875 
Q 20.90625 42.5 19.203125 43.890625 
Q 17.5 45.296875 16.5 47.4375 
Q 15.5 49.59375 15.5 52.5 
z
M 6.5 52.796875 
Q 6.5 48 9.203125 43.953125 
Q 11.90625 39.90625 16.40625 38.09375 
Q 10.40625 36 7.203125 31.34375 
Q 4 26.703125 4 20.40625 
Q 4 15 5.84375 10.953125 
Q 7.703125 6.90625 10.953125 4.203125 
Q 14.203125 1.5 18.59375 0.203125 
Q 23 -1.09375 28.09375 -1.09375 
Q 33 -1.09375 37.296875 0.296875 
Q 41.59375 1.703125 44.75 4.453125 
Q 47.90625 7.203125 49.75 11.203125 
Q 51.59375 15.203125 51.59375 20.40625 
Q 51.59375 27 48.5 31.546875 
Q 45.40625 36.09375 39 38.09375 
Q 43.5 40.09375 46.140625 44.046875 
Q 48.796875 48 48.796875 52.796875 
Q 48.796875 56.203125 47.59375 59.453125 
Q 46.40625 62.703125 43.84375 65.25 
Q 41.296875 67.796875 37.1875 69.34375 
Q 33.09375 70.90625 27.296875 70.90625 
Q 23.203125 70.90625 19.453125 69.703125 
Q 15.703125 68.5 12.796875 66.203125 
Q 9.90625 63.90625 8.203125 60.546875 
Q 6.5 57.203125 6.5 52.796875 
z
M 13 20 
Q 13 23.09375 14.140625 25.59375 
Q 15.296875 28.09375 17.34375 29.890625 
Q 19.40625 31.703125 22.15625 32.640625 
Q 24.90625 33.59375 28 33.59375 
Q 31 33.59375 33.640625 32.546875 
Q 36.296875 31.5 38.296875 29.703125 
Q 40.296875 27.90625 41.4375 25.453125 
Q 42.59375 23 42.59375 20.09375 
Q 42.59375 17.09375 41.546875 14.59375 
Q 40.5 12.09375 38.546875 10.25 
Q 36.59375 8.40625 33.9375 7.34375 
Q 31.296875 6.296875 28.09375 6.296875 
Q 21.5 6.296875 17.25 9.9375 
Q 13 13.59375 13 20 
z
" id="HelveticaNeue-56"/>
      </defs>
      <g style="fill:#555555;" transform="translate(299.626157 266.140625)scale(0.1 -0.1)">
       <use xlink:href="#HelveticaNeue-56"/>
      </g>
     </g>
    </g>
    <g id="xtick_6">
     <g id="line2d_11">
      <path clip-path="url(#pb75ba5f79f)" d="M 364.507305 252 
L 364.507305 25.92 
" style="fill:none;stroke:#eeeeee;stroke-linecap:square;stroke-width:0.8;"/>
     </g>
     <g id="line2d_12">
      <g>
       <use style="fill:#555555;stroke:#555555;stroke-width:0.8;" x="364.507305" xlink:href="#m59b1abf594" y="252"/>
      </g>
     </g>
     <g id="text_6">
      <!-- 10 -->
      <defs>
       <path d="M 35.59375 0 
L 35.59375 70.90625 
L 29.09375 70.90625 
Q 28.40625 66.90625 26.5 64.296875 
Q 24.59375 61.703125 21.84375 60.203125 
Q 19.09375 58.703125 15.6875 58.140625 
Q 12.296875 57.59375 8.703125 57.59375 
L 8.703125 50.796875 
L 27.09375 50.796875 
L 27.09375 0 
z
" id="HelveticaNeue-49"/>
      </defs>
      <g style="fill:#555555;" transform="translate(358.94793 266.140625)scale(0.1 -0.1)">
       <use xlink:href="#HelveticaNeue-49"/>
       <use x="55.599991" xlink:href="#HelveticaNeue-48"/>
      </g>
     </g>
    </g>
    <g id="text_7">
     <!-- Assets, $a$ -->
     <defs>
      <path d="M 20.09375 29.5 
L 32.203125 62.796875 
L 32.40625 62.796875 
L 44.296875 29.5 
z
M 27.203125 71.40625 
L -0.59375 0 
L 9.09375 0 
L 17.09375 21.5 
L 47.296875 21.5 
L 55.09375 0 
L 65.59375 0 
L 37.703125 71.40625 
z
" id="HelveticaNeue-65"/>
      <path d="M 11.59375 16.296875 
L 3.09375 16.296875 
Q 3.296875 11.5 5.09375 8.140625 
Q 6.90625 4.796875 9.90625 2.75 
Q 12.90625 0.703125 16.796875 -0.1875 
Q 20.703125 -1.09375 25 -1.09375 
Q 28.90625 -1.09375 32.84375 -0.34375 
Q 36.796875 0.40625 39.9375 2.296875 
Q 43.09375 4.203125 45.046875 7.296875 
Q 47 10.40625 47 15.09375 
Q 47 18.796875 45.546875 21.296875 
Q 44.09375 23.796875 41.75 25.4375 
Q 39.40625 27.09375 36.34375 28.09375 
Q 33.296875 29.09375 30.09375 29.796875 
Q 27.09375 30.5 24.09375 31.140625 
Q 21.09375 31.796875 18.6875 32.75 
Q 16.296875 33.703125 14.75 35.140625 
Q 13.203125 36.59375 13.203125 38.796875 
Q 13.203125 40.796875 14.203125 42.046875 
Q 15.203125 43.296875 16.796875 44.046875 
Q 18.40625 44.796875 20.34375 45.09375 
Q 22.296875 45.40625 24.203125 45.40625 
Q 26.296875 45.40625 28.34375 44.953125 
Q 30.40625 44.5 32.09375 43.5 
Q 33.796875 42.5 34.890625 40.84375 
Q 36 39.203125 36.203125 36.703125 
L 44.703125 36.703125 
Q 44.40625 41.40625 42.703125 44.546875 
Q 41 47.703125 38.140625 49.546875 
Q 35.296875 51.40625 31.59375 52.15625 
Q 27.90625 52.90625 23.5 52.90625 
Q 20.09375 52.90625 16.640625 52.046875 
Q 13.203125 51.203125 10.453125 49.453125 
Q 7.703125 47.703125 5.953125 44.890625 
Q 4.203125 42.09375 4.203125 38.203125 
Q 4.203125 33.203125 6.703125 30.390625 
Q 9.203125 27.59375 12.953125 26.046875 
Q 16.703125 24.5 21.09375 23.640625 
Q 25.5 22.796875 29.25 21.75 
Q 33 20.703125 35.5 19 
Q 38 17.296875 38 14 
Q 38 11.59375 36.796875 10.046875 
Q 35.59375 8.5 33.75 7.703125 
Q 31.90625 6.90625 29.703125 6.59375 
Q 27.5 6.296875 25.5 6.296875 
Q 22.90625 6.296875 20.453125 6.796875 
Q 18 7.296875 16.046875 8.4375 
Q 14.09375 9.59375 12.890625 11.546875 
Q 11.703125 13.5 11.59375 16.296875 
z
" id="HelveticaNeue-115"/>
      <path d="M 42.296875 30.796875 
L 12.59375 30.796875 
Q 12.796875 33.796875 13.890625 36.4375 
Q 15 39.09375 16.890625 41.09375 
Q 18.796875 43.09375 21.4375 44.25 
Q 24.09375 45.40625 27.40625 45.40625 
Q 30.59375 45.40625 33.25 44.25 
Q 35.90625 43.09375 37.84375 41.140625 
Q 39.796875 39.203125 40.9375 36.5 
Q 42.09375 33.796875 42.296875 30.796875 
z
M 50.5 16.40625 
L 42.09375 16.40625 
Q 41 11.296875 37.546875 8.796875 
Q 34.09375 6.296875 28.703125 6.296875 
Q 24.5 6.296875 21.390625 7.6875 
Q 18.296875 9.09375 16.296875 11.4375 
Q 14.296875 13.796875 13.390625 16.84375 
Q 12.5 19.90625 12.59375 23.296875 
L 51.296875 23.296875 
Q 51.5 28 50.453125 33.203125 
Q 49.40625 38.40625 46.65625 42.796875 
Q 43.90625 47.203125 39.34375 50.046875 
Q 34.796875 52.90625 27.90625 52.90625 
Q 22.59375 52.90625 18.140625 50.90625 
Q 13.703125 48.90625 10.453125 45.296875 
Q 7.203125 41.703125 5.390625 36.796875 
Q 3.59375 31.90625 3.59375 26 
Q 3.796875 20.09375 5.34375 15.09375 
Q 6.90625 10.09375 10 6.5 
Q 13.09375 2.90625 17.640625 0.90625 
Q 22.203125 -1.09375 28.40625 -1.09375 
Q 37.203125 -1.09375 43 3.296875 
Q 48.796875 7.703125 50.5 16.40625 
z
" id="HelveticaNeue-101"/>
      <path d="M 18.203125 51.703125 
L 18.203125 67.203125 
L 9.703125 67.203125 
L 9.703125 51.703125 
L 0.90625 51.703125 
L 0.90625 44.203125 
L 9.703125 44.203125 
L 9.703125 11.296875 
Q 9.703125 7.703125 10.390625 5.5 
Q 11.09375 3.296875 12.546875 2.09375 
Q 14 0.90625 16.34375 0.453125 
Q 18.703125 0 22 0 
L 28.5 0 
L 28.5 7.5 
L 24.59375 7.5 
Q 22.59375 7.5 21.34375 7.640625 
Q 20.09375 7.796875 19.390625 8.296875 
Q 18.703125 8.796875 18.453125 9.6875 
Q 18.203125 10.59375 18.203125 12.09375 
L 18.203125 44.203125 
L 28.5 44.203125 
L 28.5 51.703125 
z
" id="HelveticaNeue-116"/>
      <path d="M 8.296875 11.09375 
L 8.296875 0 
L 14.203125 0 
Q 14.296875 -1.203125 14.046875 -2.59375 
Q 13.796875 -4 13.09375 -5.34375 
Q 12.40625 -6.703125 11.25 -7.84375 
Q 10.09375 -9 8.40625 -9.59375 
L 8.40625 -14.59375 
Q 14.203125 -12.90625 16.796875 -8.796875 
Q 19.40625 -4.703125 19.40625 1 
L 19.40625 11.09375 
z
" id="HelveticaNeue-44"/>
      <path id="HelveticaNeue-32"/>
      <path d="M 32.90625 24.609375 
Q 26.375 24.609375 23.015625 22.578125 
Q 19.671875 20.5625 19.671875 16.609375 
Q 19.671875 13.625 21.65625 11.90625 
Q 23.640625 10.203125 27.09375 10.203125 
Q 32.46875 10.203125 36.078125 13.453125 
Q 39.703125 16.703125 40.921875 22.609375 
L 41.3125 24.609375 
z
M 60.203125 31.203125 
L 54.109375 0 
L 36.625 0 
L 38.09375 8.109375 
Q 33.796875 3.21875 29 0.890625 
Q 24.21875 -1.421875 18.609375 -1.421875 
Q 10.84375 -1.421875 6.265625 2.609375 
Q 1.703125 6.640625 1.703125 13.484375 
Q 1.703125 23.921875 9.78125 29.46875 
Q 17.875 35.015625 33.109375 35.015625 
L 43.40625 35.015625 
L 43.609375 36.375 
Q 43.75 37.0625 43.765625 37.34375 
Q 43.796875 37.640625 43.796875 37.890625 
Q 43.796875 41.109375 40.75 42.75 
Q 37.703125 44.390625 31.6875 44.390625 
Q 26.265625 44.390625 21.1875 43.265625 
Q 16.109375 42.140625 11.375 39.890625 
L 14.015625 53.21875 
Q 19.484375 54.59375 25.21875 55.296875 
Q 30.953125 56 37.109375 56 
Q 49.265625 56 55.171875 51.828125 
Q 61.078125 47.65625 61.078125 39.109375 
Q 61.078125 37.453125 60.859375 35.46875 
Q 60.640625 33.5 60.203125 31.203125 
z
" id="DejaVuSans-BoldOblique-97"/>
     </defs>
     <g style="fill:#555555;" transform="translate(200.2 279.251562)scale(0.1 -0.1)">
      <use transform="translate(0 0.59375)" xlink:href="#HelveticaNeue-65"/>
      <use transform="translate(64.799988 0.59375)" xlink:href="#HelveticaNeue-115"/>
      <use transform="translate(114.799973 0.59375)" xlink:href="#HelveticaNeue-115"/>
      <use transform="translate(164.799957 0.59375)" xlink:href="#HelveticaNeue-101"/>
      <use transform="translate(218.499954 0.59375)" xlink:href="#HelveticaNeue-116"/>
      <use transform="translate(249.999939 0.59375)" xlink:href="#HelveticaNeue-115"/>
      <use transform="translate(299.999924 0.59375)" xlink:href="#HelveticaNeue-44"/>
      <use transform="translate(327.799911 0.59375)" xlink:href="#HelveticaNeue-32"/>
      <use transform="translate(355.599899 0.59375)" xlink:href="#DejaVuSans-BoldOblique-97"/>
     </g>
    </g>
   </g>
   <g id="matplotlib.axis_2">
    <g id="ytick_1">
     <g id="line2d_13">
      <path clip-path="url(#pb75ba5f79f)" d="M 54 236.351922 
L 388.8 236.351922 
" style="fill:none;stroke:#eeeeee;stroke-linecap:square;stroke-width:0.8;"/>
     </g>
     <g id="line2d_14">
      <defs>
       <path d="M 0 0 
L -3.5 0 
" id="m04874ff2e2" style="stroke:#555555;stroke-width:0.8;"/>
      </defs>
      <g>
       <use style="fill:#555555;stroke:#555555;stroke-width:0.8;" x="54" xlink:href="#m04874ff2e2" y="236.351922"/>
      </g>
     </g>
     <g id="text_8">
      <!-- 0.2 -->
      <defs>
       <path d="M 8.296875 11.09375 
L 8.296875 0 
L 19.40625 0 
L 19.40625 11.09375 
z
" id="HelveticaNeue-46"/>
      </defs>
      <g style="fill:#555555;" transform="translate(33.101562 239.922234)scale(0.1 -0.1)">
       <use xlink:href="#HelveticaNeue-48"/>
       <use x="55.599991" xlink:href="#HelveticaNeue-46"/>
       <use x="83.399979" xlink:href="#HelveticaNeue-50"/>
      </g>
     </g>
    </g>
    <g id="ytick_2">
     <g id="line2d_15">
      <path clip-path="url(#pb75ba5f79f)" d="M 54 206.899935 
L 388.8 206.899935 
" style="fill:none;stroke:#eeeeee;stroke-linecap:square;stroke-width:0.8;"/>
     </g>
     <g id="line2d_16">
      <g>
       <use style="fill:#555555;stroke:#555555;stroke-width:0.8;" x="54" xlink:href="#m04874ff2e2" y="206.899935"/>
      </g>
     </g>
     <g id="text_9">
      <!-- 0.4 -->
      <g style="fill:#555555;" transform="translate(33.101562 210.470247)scale(0.1 -0.1)">
       <use xlink:href="#HelveticaNeue-48"/>
       <use x="55.599991" xlink:href="#HelveticaNeue-46"/>
       <use x="83.399979" xlink:href="#HelveticaNeue-52"/>
      </g>
     </g>
    </g>
    <g id="ytick_3">
     <g id="line2d_17">
      <path clip-path="url(#pb75ba5f79f)" d="M 54 177.447947 
L 388.8 177.447947 
" style="fill:none;stroke:#eeeeee;stroke-linecap:square;stroke-width:0.8;"/>
     </g>
     <g id="line2d_18">
      <g>
       <use style="fill:#555555;stroke:#555555;stroke-width:0.8;" x="54" xlink:href="#m04874ff2e2" y="177.447947"/>
      </g>
     </g>
     <g id="text_10">
      <!-- 0.6 -->
      <g style="fill:#555555;" transform="translate(33.101562 181.01826)scale(0.1 -0.1)">
       <use xlink:href="#HelveticaNeue-48"/>
       <use x="55.599991" xlink:href="#HelveticaNeue-46"/>
       <use x="83.399979" xlink:href="#HelveticaNeue-54"/>
      </g>
     </g>
    </g>
    <g id="ytick_4">
     <g id="line2d_19">
      <path clip-path="url(#pb75ba5f79f)" d="M 54 147.99596 
L 388.8 147.99596 
" style="fill:none;stroke:#eeeeee;stroke-linecap:square;stroke-width:0.8;"/>
     </g>
     <g id="line2d_20">
      <g>
       <use style="fill:#555555;stroke:#555555;stroke-width:0.8;" x="54" xlink:href="#m04874ff2e2" y="147.99596"/>
      </g>
     </g>
     <g id="text_11">
      <!-- 0.8 -->
      <g style="fill:#555555;" transform="translate(33.101562 151.566273)scale(0.1 -0.1)">
       <use xlink:href="#HelveticaNeue-48"/>
       <use x="55.599991" xlink:href="#HelveticaNeue-46"/>
       <use x="83.399979" xlink:href="#HelveticaNeue-56"/>
      </g>
     </g>
    </g>
    <g id="ytick_5">
     <g id="line2d_21">
      <path clip-path="url(#pb75ba5f79f)" d="M 54 118.543973 
L 388.8 118.543973 
" style="fill:none;stroke:#eeeeee;stroke-linecap:square;stroke-width:0.8;"/>
     </g>
     <g id="line2d_22">
      <g>
       <use style="fill:#555555;stroke:#555555;stroke-width:0.8;" x="54" xlink:href="#m04874ff2e2" y="118.543973"/>
      </g>
     </g>
     <g id="text_12">
      <!-- 1.0 -->
      <g style="fill:#555555;" transform="translate(33.101562 122.114286)scale(0.1 -0.1)">
       <use xlink:href="#HelveticaNeue-49"/>
       <use x="55.599991" xlink:href="#HelveticaNeue-46"/>
       <use x="83.399979" xlink:href="#HelveticaNeue-48"/>
      </g>
     </g>
    </g>
    <g id="ytick_6">
     <g id="line2d_23">
      <path clip-path="url(#pb75ba5f79f)" d="M 54 89.091986 
L 388.8 89.091986 
" style="fill:none;stroke:#eeeeee;stroke-linecap:square;stroke-width:0.8;"/>
     </g>
     <g id="line2d_24">
      <g>
       <use style="fill:#555555;stroke:#555555;stroke-width:0.8;" x="54" xlink:href="#m04874ff2e2" y="89.091986"/>
      </g>
     </g>
     <g id="text_13">
      <!-- 1.2 -->
      <g style="fill:#555555;" transform="translate(33.101562 92.662298)scale(0.1 -0.1)">
       <use xlink:href="#HelveticaNeue-49"/>
       <use x="55.599991" xlink:href="#HelveticaNeue-46"/>
       <use x="83.399979" xlink:href="#HelveticaNeue-50"/>
      </g>
     </g>
    </g>
    <g id="ytick_7">
     <g id="line2d_25">
      <path clip-path="url(#pb75ba5f79f)" d="M 54 59.639999 
L 388.8 59.639999 
" style="fill:none;stroke:#eeeeee;stroke-linecap:square;stroke-width:0.8;"/>
     </g>
     <g id="line2d_26">
      <g>
       <use style="fill:#555555;stroke:#555555;stroke-width:0.8;" x="54" xlink:href="#m04874ff2e2" y="59.639999"/>
      </g>
     </g>
     <g id="text_14">
      <!-- 1.4 -->
      <g style="fill:#555555;" transform="translate(33.101562 63.210311)scale(0.1 -0.1)">
       <use xlink:href="#HelveticaNeue-49"/>
       <use x="55.599991" xlink:href="#HelveticaNeue-46"/>
       <use x="83.399979" xlink:href="#HelveticaNeue-52"/>
      </g>
     </g>
    </g>
    <g id="ytick_8">
     <g id="line2d_27">
      <path clip-path="url(#pb75ba5f79f)" d="M 54 30.188012 
L 388.8 30.188012 
" style="fill:none;stroke:#eeeeee;stroke-linecap:square;stroke-width:0.8;"/>
     </g>
     <g id="line2d_28">
      <g>
       <use style="fill:#555555;stroke:#555555;stroke-width:0.8;" x="54" xlink:href="#m04874ff2e2" y="30.188012"/>
      </g>
     </g>
     <g id="text_15">
      <!-- 1.6 -->
      <g style="fill:#555555;" transform="translate(33.101562 33.758324)scale(0.1 -0.1)">
       <use xlink:href="#HelveticaNeue-49"/>
       <use x="55.599991" xlink:href="#HelveticaNeue-46"/>
       <use x="83.399979" xlink:href="#HelveticaNeue-54"/>
      </g>
     </g>
    </g>
    <g id="text_16">
     <!-- Consumption, $c(\varepsilon,a)$ -->
     <defs>
      <path d="M 58 49.90625 
L 67.5 49.90625 
Q 66.703125 55.59375 64.09375 59.9375 
Q 61.5 64.296875 57.59375 67.1875 
Q 53.703125 70.09375 48.703125 71.59375 
Q 43.703125 73.09375 38.09375 73.09375 
Q 29.90625 73.09375 23.546875 70.140625 
Q 17.203125 67.203125 12.953125 62.09375 
Q 8.703125 57 6.5 50.140625 
Q 4.296875 43.296875 4.296875 35.5 
Q 4.296875 27.703125 6.34375 20.890625 
Q 8.40625 14.09375 12.5 9.09375 
Q 16.59375 4.09375 22.796875 1.25 
Q 29 -1.59375 37.296875 -1.59375 
Q 51 -1.59375 58.890625 5.90625 
Q 66.796875 13.40625 68.203125 26.90625 
L 58.703125 26.90625 
Q 58.40625 22.5 56.90625 18.703125 
Q 55.40625 14.90625 52.75 12.15625 
Q 50.09375 9.40625 46.4375 7.84375 
Q 42.796875 6.296875 38.09375 6.296875 
Q 31.703125 6.296875 27.09375 8.6875 
Q 22.5 11.09375 19.546875 15.140625 
Q 16.59375 19.203125 15.1875 24.640625 
Q 13.796875 30.09375 13.796875 36.203125 
Q 13.796875 41.796875 15.1875 47 
Q 16.59375 52.203125 19.546875 56.25 
Q 22.5 60.296875 27.046875 62.6875 
Q 31.59375 65.09375 38 65.09375 
Q 45.5 65.09375 50.953125 61.296875 
Q 56.40625 57.5 58 49.90625 
z
" id="HelveticaNeue-67"/>
      <path d="M 12.59375 25.796875 
Q 12.59375 30.5 13.84375 34.140625 
Q 15.09375 37.796875 17.296875 40.296875 
Q 19.5 42.796875 22.453125 44.09375 
Q 25.40625 45.40625 28.703125 45.40625 
Q 32 45.40625 34.953125 44.09375 
Q 37.90625 42.796875 40.09375 40.296875 
Q 42.296875 37.796875 43.546875 34.140625 
Q 44.796875 30.5 44.796875 25.796875 
Q 44.796875 21.09375 43.546875 17.4375 
Q 42.296875 13.796875 40.09375 11.34375 
Q 37.90625 8.90625 34.953125 7.59375 
Q 32 6.296875 28.703125 6.296875 
Q 25.40625 6.296875 22.453125 7.59375 
Q 19.5 8.90625 17.296875 11.34375 
Q 15.09375 13.796875 13.84375 17.4375 
Q 12.59375 21.09375 12.59375 25.796875 
z
M 3.59375 25.796875 
Q 3.59375 20.09375 5.1875 15.1875 
Q 6.796875 10.296875 10 6.640625 
Q 13.203125 3 17.890625 0.953125 
Q 22.59375 -1.09375 28.703125 -1.09375 
Q 34.90625 -1.09375 39.546875 0.953125 
Q 44.203125 3 47.390625 6.640625 
Q 50.59375 10.296875 52.1875 15.1875 
Q 53.796875 20.09375 53.796875 25.796875 
Q 53.796875 31.5 52.1875 36.453125 
Q 50.59375 41.40625 47.390625 45.046875 
Q 44.203125 48.703125 39.546875 50.796875 
Q 34.90625 52.90625 28.703125 52.90625 
Q 22.59375 52.90625 17.890625 50.796875 
Q 13.203125 48.703125 10 45.046875 
Q 6.796875 41.40625 5.1875 36.453125 
Q 3.59375 31.5 3.59375 25.796875 
z
" id="HelveticaNeue-111"/>
      <path d="M 6.40625 51.703125 
L 6.40625 0 
L 14.90625 0 
L 14.90625 29.203125 
Q 14.90625 32.703125 15.84375 35.640625 
Q 16.796875 38.59375 18.6875 40.796875 
Q 20.59375 43 23.4375 44.203125 
Q 26.296875 45.40625 30.203125 45.40625 
Q 35.09375 45.40625 37.890625 42.59375 
Q 40.703125 39.796875 40.703125 35 
L 40.703125 0 
L 49.203125 0 
L 49.203125 34 
Q 49.203125 38.203125 48.34375 41.640625 
Q 47.5 45.09375 45.390625 47.59375 
Q 43.296875 50.09375 39.890625 51.5 
Q 36.5 52.90625 31.40625 52.90625 
Q 19.90625 52.90625 14.59375 43.5 
L 14.40625 43.5 
L 14.40625 51.703125 
z
" id="HelveticaNeue-110"/>
      <path d="M 49.203125 0 
L 49.203125 51.703125 
L 40.703125 51.703125 
L 40.703125 22.5 
Q 40.703125 19 39.75 16.046875 
Q 38.796875 13.09375 36.890625 10.890625 
Q 35 8.703125 32.140625 7.5 
Q 29.296875 6.296875 25.40625 6.296875 
Q 20.5 6.296875 17.703125 9.09375 
Q 14.90625 11.90625 14.90625 16.703125 
L 14.90625 51.703125 
L 6.40625 51.703125 
L 6.40625 17.703125 
Q 6.40625 13.5 7.25 10.046875 
Q 8.09375 6.59375 10.1875 4.09375 
Q 12.296875 1.59375 15.6875 0.25 
Q 19.09375 -1.09375 24.203125 -1.09375 
Q 29.90625 -1.09375 34.09375 1.15625 
Q 38.296875 3.40625 41 8.203125 
L 41.203125 8.203125 
L 41.203125 0 
z
" id="HelveticaNeue-117"/>
      <path d="M 6.40625 51.703125 
L 6.40625 0 
L 14.90625 0 
L 14.90625 32.203125 
Q 14.90625 33.703125 15.65625 35.953125 
Q 16.40625 38.203125 18.046875 40.296875 
Q 19.703125 42.40625 22.34375 43.90625 
Q 25 45.40625 28.703125 45.40625 
Q 31.59375 45.40625 33.4375 44.546875 
Q 35.296875 43.703125 36.390625 42.140625 
Q 37.5 40.59375 37.953125 38.5 
Q 38.40625 36.40625 38.40625 33.90625 
L 38.40625 0 
L 46.90625 0 
L 46.90625 32.203125 
Q 46.90625 38.203125 50.5 41.796875 
Q 54.09375 45.40625 60.40625 45.40625 
Q 63.5 45.40625 65.453125 44.5 
Q 67.40625 43.59375 68.5 42.046875 
Q 69.59375 40.5 70 38.390625 
Q 70.40625 36.296875 70.40625 33.90625 
L 70.40625 0 
L 78.90625 0 
L 78.90625 37.90625 
Q 78.90625 41.90625 77.65625 44.75 
Q 76.40625 47.59375 74.15625 49.390625 
Q 71.90625 51.203125 68.75 52.046875 
Q 65.59375 52.90625 61.703125 52.90625 
Q 56.59375 52.90625 52.34375 50.59375 
Q 48.09375 48.296875 45.5 44.09375 
Q 43.90625 48.90625 40 50.90625 
Q 36.09375 52.90625 31.296875 52.90625 
Q 20.40625 52.90625 14.59375 44.09375 
L 14.40625 44.09375 
L 14.40625 51.703125 
z
" id="HelveticaNeue-109"/>
      <path d="M 6.703125 51.703125 
L 6.703125 -19.703125 
L 15.203125 -19.703125 
L 15.203125 6.90625 
L 15.40625 6.90625 
Q 16.796875 4.59375 18.84375 3.046875 
Q 20.90625 1.5 23.203125 0.59375 
Q 25.5 -0.296875 27.84375 -0.6875 
Q 30.203125 -1.09375 32.09375 -1.09375 
Q 38 -1.09375 42.453125 1 
Q 46.90625 3.09375 49.84375 6.75 
Q 52.796875 10.40625 54.25 15.296875 
Q 55.703125 20.203125 55.703125 25.703125 
Q 55.703125 31.203125 54.203125 36.09375 
Q 52.703125 41 49.75 44.75 
Q 46.796875 48.5 42.34375 50.703125 
Q 37.90625 52.90625 31.90625 52.90625 
Q 26.5 52.90625 22 50.953125 
Q 17.5 49 15.40625 44.703125 
L 15.203125 44.703125 
L 15.203125 51.703125 
z
M 46.703125 26.296875 
Q 46.703125 22.5 45.890625 18.890625 
Q 45.09375 15.296875 43.296875 12.5 
Q 41.5 9.703125 38.546875 8 
Q 35.59375 6.296875 31.203125 6.296875 
Q 26.796875 6.296875 23.6875 7.9375 
Q 20.59375 9.59375 18.640625 12.296875 
Q 16.703125 15 15.796875 18.546875 
Q 14.90625 22.09375 14.90625 25.90625 
Q 14.90625 29.5 15.75 33 
Q 16.59375 36.5 18.5 39.25 
Q 20.40625 42 23.40625 43.703125 
Q 26.40625 45.40625 30.703125 45.40625 
Q 34.796875 45.40625 37.84375 43.796875 
Q 40.90625 42.203125 42.84375 39.5 
Q 44.796875 36.796875 45.75 33.34375 
Q 46.703125 29.90625 46.703125 26.296875 
z
" id="HelveticaNeue-112"/>
      <path d="M 15.40625 61 
L 15.40625 71.40625 
L 6.90625 71.40625 
L 6.90625 61 
z
M 6.90625 51.703125 
L 6.90625 0 
L 15.40625 0 
L 15.40625 51.703125 
z
" id="HelveticaNeue-105"/>
      <path d="M 58.109375 52.984375 
L 55.328125 38.71875 
Q 51.8125 41.0625 48.390625 42.28125 
Q 44.96875 43.5 41.703125 43.5 
Q 33.15625 43.5 27.734375 37.765625 
Q 22.3125 32.03125 22.3125 23.09375 
Q 22.3125 17.390625 25.671875 14.234375 
Q 29.046875 11.078125 35.203125 11.078125 
Q 39.3125 11.078125 43.265625 12.296875 
Q 47.21875 13.53125 50.78125 15.921875 
L 48.09375 1.609375 
Q 43.75 0.09375 39.359375 -0.65625 
Q 34.96875 -1.421875 30.515625 -1.421875 
Q 17.625 -1.421875 10.671875 4.359375 
Q 3.71875 10.15625 3.71875 20.796875 
Q 3.71875 27.484375 6.28125 33.78125 
Q 8.84375 40.09375 13.625 45.125 
Q 18.953125 50.640625 25.828125 53.3125 
Q 32.71875 56 41.703125 56 
Q 45.84375 56 49.9375 55.25 
Q 54.046875 54.5 58.109375 52.984375 
z
" id="DejaVuSans-BoldOblique-99"/>
      <path d="M 37.703125 -13.1875 
L 23.1875 -13.1875 
Q 15.71875 -1.125 12.15625 9.734375 
Q 8.59375 20.609375 8.59375 31.296875 
Q 8.59375 42 12.171875 52.953125 
Q 15.765625 63.921875 23.1875 75.875 
L 37.703125 75.875 
Q 31.453125 64.3125 28.328125 53.25 
Q 25.203125 42.1875 25.203125 31.390625 
Q 25.203125 20.609375 28.296875 9.515625 
Q 31.390625 -1.5625 37.703125 -13.1875 
z
" id="DejaVuSans-Bold-40"/>
      <path d="M 25.828125 -1.421875 
Q 2.734375 -1.421875 2.734375 12.015625 
Q 2.734375 19.671875 7.90625 24.515625 
Q 11.671875 28.03125 17.875 29.5 
Q 9.234375 31.59375 9.234375 38.921875 
Q 9.234375 40.234375 9.515625 41.65625 
Q 10.9375 49.03125 17.28125 52.515625 
Q 23.640625 56 34.96875 56 
Q 43.5 56 51.953125 53.65625 
L 49.703125 42 
Q 47.015625 43.3125 43.015625 44.09375 
Q 39.015625 44.875 35.25 44.875 
Q 31.5 44.875 28.46875 43.171875 
Q 24.953125 41.15625 24.953125 39.0625 
Q 24.953125 36.96875 27.078125 35.515625 
Q 29.203125 34.078125 34.90625 34.078125 
L 40.96875 34.078125 
L 38.8125 23.140625 
L 33.0625 23.140625 
Q 26.765625 23.140625 23.296875 21.296875 
Q 19.09375 19.09375 19.09375 15.625 
Q 19.09375 13.375 21.671875 11.59375 
Q 24.265625 9.8125 29 9.8125 
Q 38.421875 9.8125 46.6875 13.625 
L 44.28125 1.3125 
Q 34.96875 -1.421875 25.828125 -1.421875 
z
" id="DejaVuSans-BoldOblique-949"/>
      <path d="M 10.203125 18.890625 
L 27.78125 18.890625 
L 27.78125 4 
L 15.71875 -14.203125 
L 5.328125 -14.203125 
L 10.203125 4 
z
" id="DejaVuSans-Bold-44"/>
      <path d="M 8.015625 -13.1875 
Q 14.265625 -1.5625 17.390625 9.515625 
Q 20.515625 20.609375 20.515625 31.390625 
Q 20.515625 42.1875 17.390625 53.25 
Q 14.265625 64.3125 8.015625 75.875 
L 22.515625 75.875 
Q 29.9375 63.921875 33.515625 52.953125 
Q 37.109375 42 37.109375 31.296875 
Q 37.109375 20.609375 33.546875 9.734375 
Q 29.984375 -1.125 22.515625 -13.1875 
z
" id="DejaVuSans-Bold-41"/>
     </defs>
     <g style="fill:#555555;" transform="translate(27.101562 188.51)rotate(-90)scale(0.1 -0.1)">
      <use transform="translate(0 0.125)" xlink:href="#HelveticaNeue-67"/>
      <use transform="translate(72.199982 0.125)" xlink:href="#HelveticaNeue-111"/>
      <use transform="translate(129.599976 0.125)" xlink:href="#HelveticaNeue-110"/>
      <use transform="translate(185.199966 0.125)" xlink:href="#HelveticaNeue-115"/>
      <use transform="translate(235.199951 0.125)" xlink:href="#HelveticaNeue-117"/>
      <use transform="translate(290.799942 0.125)" xlink:href="#HelveticaNeue-109"/>
      <use transform="translate(376.09993 0.125)" xlink:href="#HelveticaNeue-112"/>
      <use transform="translate(435.399918 0.125)" xlink:href="#HelveticaNeue-116"/>
      <use transform="translate(466.899902 0.125)" xlink:href="#HelveticaNeue-105"/>
      <use transform="translate(489.099899 0.125)" xlink:href="#HelveticaNeue-111"/>
      <use transform="translate(546.499893 0.125)" xlink:href="#HelveticaNeue-110"/>
      <use transform="translate(602.099884 0.125)" xlink:href="#HelveticaNeue-44"/>
      <use transform="translate(629.899872 0.125)" xlink:href="#HelveticaNeue-32"/>
      <use transform="translate(657.69986 0.125)" xlink:href="#DejaVuSans-BoldOblique-99"/>
      <use transform="translate(716.977203 0.125)" xlink:href="#DejaVuSans-Bold-40"/>
      <use transform="translate(762.680328 0.125)" xlink:href="#DejaVuSans-BoldOblique-949"/>
      <use transform="translate(818.344391 0.125)" xlink:href="#DejaVuSans-Bold-44"/>
      <use transform="translate(877.172516 0.125)" xlink:href="#DejaVuSans-BoldOblique-97"/>
      <use transform="translate(944.652985 0.125)" xlink:href="#DejaVuSans-Bold-41"/>
     </g>
    </g>
   </g>
   <g id="line2d_29">
    <path clip-path="url(#pb75ba5f79f)" d="M 54 241.723636 
L 57.757576 224.464312 
L 61.515152 213.628504 
L 65.272727 203.26476 
L 69.030303 195.44325 
L 72.787879 188.941651 
L 76.545455 182.681438 
L 80.30303 176.500938 
L 84.060606 170.717595 
L 87.818182 165.618805 
L 91.575758 161.23332 
L 95.333333 157.370664 
L 99.090909 153.777623 
L 102.848485 150.272207 
L 106.606061 146.796927 
L 110.363636 143.399774 
L 114.121212 140.177464 
L 117.878788 137.215493 
L 121.636364 134.548727 
L 125.393939 132.151745 
L 129.151515 129.954687 
L 132.909091 127.872143 
L 136.666667 125.831581 
L 140.424242 123.791928 
L 144.181818 121.748815 
L 147.939394 119.727864 
L 151.69697 117.770401 
L 155.454545 115.917 
L 159.212121 114.193869 
L 162.969697 112.605425 
L 166.727273 111.134203 
L 170.484848 109.746992 
L 174.242424 108.404568 
L 178 107.071874 
L 181.757576 105.725936 
L 185.515152 104.359824 
L 189.272727 102.982209 
L 193.030303 101.613132 
L 196.787879 100.277417 
L 200.545455 98.997513 
L 204.30303 97.787556 
L 208.060606 96.649967 
L 211.818182 95.575214 
L 215.575758 94.544545 
L 219.333333 93.53478 
L 223.090909 92.523874 
L 226.848485 91.495856 
L 230.606061 90.444071 
L 234.363636 89.372056 
L 238.121212 88.29199 
L 241.878788 87.221191 
L 245.636364 86.177525 
L 249.393939 85.174848 
L 253.151515 84.219549 
L 256.909091 83.309005 
L 260.666667 82.432277 
L 264.424242 81.572843 
L 268.181818 80.712667 
L 271.939394 79.836593 
L 275.69697 78.936006 
L 279.454545 78.010849 
L 283.212121 77.069511 
L 286.969697 76.126564 
L 290.727273 75.19887 
L 294.484848 74.301004 
L 298.242424 73.441163 
L 302 72.618682 
L 305.757576 71.823909 
L 309.515152 71.040607 
L 313.272727 70.250355 
L 317.030303 69.437813 
L 320.787879 68.595404 
L 324.545455 67.725989 
L 328.30303 66.842526 
L 332.060606 65.964511 
L 335.818182 65.111928 
L 339.575758 64.298364 
L 343.333333 63.525544 
L 347.090909 62.781405 
L 350.848485 62.043043 
L 354.606061 61.284266 
L 358.363636 60.48572 
L 362.121212 59.644054 
L 365.878788 58.776051 
L 369.636364 57.914561 
L 373.393939 57.095741 
L 377.151515 56.341104 
L 380.909091 55.642032 
L 384.666667 54.956415 
L 388.424242 54.224477 
L 392.181818 53.402495 
L 395.939394 52.500254 
L 399.69697 51.595855 
L 403.454545 50.799689 
L 407.212121 50.162875 
L 410.969697 49.584283 
L 414.727273 48.843005 
L 418.484848 47.874397 
L 422.242424 47.070925 
L 426 46.143591 
" style="fill:none;stroke:#b3220f;stroke-linecap:square;stroke-width:1.5;"/>
   </g>
   <g id="line2d_30">
    <path clip-path="url(#pb75ba5f79f)" d="M 54 142.673065 
L 57.757576 139.062389 
L 61.515152 136.022849 
L 65.272727 133.335291 
L 69.030303 130.836499 
L 72.787879 128.483724 
L 76.545455 126.284914 
L 80.30303 124.242542 
L 84.060606 122.337217 
L 87.818182 120.536494 
L 91.575758 118.809816 
L 95.333333 117.138235 
L 99.090909 115.515972 
L 102.848485 113.94607 
L 106.606061 112.433975 
L 110.363636 110.982276 
L 114.121212 109.588226 
L 117.878788 108.244145 
L 121.636364 106.939738 
L 125.393939 105.665024 
L 129.151515 104.412724 
L 132.909091 103.179439 
L 136.666667 101.965484 
L 140.424242 100.773676 
L 144.181818 99.607618 
L 147.939394 98.470036 
L 151.69697 97.361637 
L 155.454545 96.2807 
L 159.212121 95.223411 
L 162.969697 94.184749 
L 166.727273 93.159615 
L 170.484848 92.143892 
L 174.242424 91.135171 
L 178 90.13301 
L 181.757576 89.138703 
L 185.515152 88.154664 
L 189.272727 87.183599 
L 193.030303 86.227687 
L 196.787879 85.287945 
L 200.545455 84.363914 
L 204.30303 83.453715 
L 208.060606 82.554434 
L 211.818182 81.66273 
L 215.575758 80.775514 
L 219.333333 79.890546 
L 223.090909 79.006822 
L 226.848485 78.124672 
L 230.606061 77.245558 
L 234.363636 76.371635 
L 238.121212 75.505166 
L 241.878788 74.647935 
L 245.636364 73.800788 
L 249.393939 72.963391 
L 253.151515 72.134273 
L 256.909091 71.311125 
L 260.666667 70.491299 
L 264.424242 69.672383 
L 268.181818 68.852727 
L 271.939394 68.031795 
L 275.69697 67.210254 
L 279.454545 66.389781 
L 283.212121 65.572619 
L 286.969697 64.760982 
L 290.727273 63.956453 
L 294.484848 63.159517 
L 298.242424 62.369358 
L 302 61.583995 
L 305.757576 60.800731 
L 309.515152 60.016832 
L 313.272727 59.230268 
L 317.030303 58.440316 
L 320.787879 57.647848 
L 324.545455 56.855174 
L 328.30303 56.065439 
L 332.060606 55.281692 
L 335.818182 54.505859 
L 339.575758 53.737941 
L 343.333333 52.975724 
L 347.090909 52.215208 
L 350.848485 51.451748 
L 354.606061 50.681657 
L 358.363636 49.903782 
L 362.121212 49.12046 
L 365.878788 48.337283 
L 369.636364 47.561427 
L 373.393939 46.798792 
L 377.151515 46.050855 
L 380.909091 45.31262 
L 384.666667 44.573176 
L 388.424242 43.819694 
L 392.181818 43.044236 
L 395.939394 42.250662 
L 399.69697 41.457024 
L 403.454545 40.688751 
L 407.212121 39.961504 
L 410.969697 39.261423 
L 414.727273 38.542322 
L 418.484848 37.763532 
L 422.242424 36.959365 
L 426 36.196364 
" style="fill:none;stroke:#f16e53;stroke-linecap:square;stroke-width:1.5;"/>
   </g>
   <g id="patch_3">
    <path d="M 54 252 
L 54 25.92 
" style="fill:none;stroke:#555555;stroke-linecap:square;stroke-linejoin:miter;"/>
   </g>
   <g id="patch_4">
    <path d="M 54 252 
L 388.8 252 
" style="fill:none;stroke:#555555;stroke-linecap:square;stroke-linejoin:miter;"/>
   </g>
   <g id="text_17">
    <!-- Consumption Decision Rule -->
    <defs>
     <path d="M 17.296875 8 
L 17.296875 63.40625 
L 33.296875 63.40625 
Q 39.90625 63.40625 44.40625 61.546875 
Q 48.90625 59.703125 51.75 56.140625 
Q 54.59375 52.59375 55.84375 47.546875 
Q 57.09375 42.5 57.09375 36.09375 
Q 57.09375 29.5 55.75 24.84375 
Q 54.40625 20.203125 52.296875 17.09375 
Q 50.203125 14 47.546875 12.203125 
Q 44.90625 10.40625 42.203125 9.453125 
Q 39.5 8.5 37.09375 8.25 
Q 34.703125 8 33.09375 8 
z
M 7.796875 71.40625 
L 7.796875 0 
L 32.296875 0 
Q 41.203125 0 47.703125 2.5 
Q 54.203125 5 58.390625 9.75 
Q 62.59375 14.5 64.59375 21.453125 
Q 66.59375 28.40625 66.59375 37.40625 
Q 66.59375 54.59375 57.6875 63 
Q 48.796875 71.40625 32.296875 71.40625 
z
" id="HelveticaNeue-68"/>
     <path d="M 41.5 35.09375 
L 50.296875 35.09375 
Q 49.796875 39.703125 47.890625 43.046875 
Q 46 46.40625 43.046875 48.59375 
Q 40.09375 50.796875 36.25 51.84375 
Q 32.40625 52.90625 28 52.90625 
Q 21.90625 52.90625 17.296875 50.75 
Q 12.703125 48.59375 9.640625 44.84375 
Q 6.59375 41.09375 5.09375 36.046875 
Q 3.59375 31 3.59375 25.203125 
Q 3.59375 19.40625 5.140625 14.546875 
Q 6.703125 9.703125 9.75 6.203125 
Q 12.796875 2.703125 17.34375 0.796875 
Q 21.90625 -1.09375 27.796875 -1.09375 
Q 37.703125 -1.09375 43.453125 4.09375 
Q 49.203125 9.296875 50.59375 18.90625 
L 41.90625 18.90625 
Q 41.09375 12.90625 37.546875 9.59375 
Q 34 6.296875 27.703125 6.296875 
Q 23.703125 6.296875 20.796875 7.890625 
Q 17.90625 9.5 16.09375 12.140625 
Q 14.296875 14.796875 13.4375 18.1875 
Q 12.59375 21.59375 12.59375 25.203125 
Q 12.59375 29.09375 13.390625 32.75 
Q 14.203125 36.40625 16.046875 39.203125 
Q 17.90625 42 21 43.703125 
Q 24.09375 45.40625 28.703125 45.40625 
Q 34.09375 45.40625 37.296875 42.703125 
Q 40.5 40 41.5 35.09375 
z
" id="HelveticaNeue-99"/>
     <path d="M 7.796875 71.40625 
L 7.796875 0 
L 17.296875 0 
L 17.296875 30.5 
L 40.5 30.5 
Q 44 30.5 46.09375 29.453125 
Q 48.203125 28.40625 49.5 26.65625 
Q 50.796875 24.90625 51.390625 22.546875 
Q 52 20.203125 52.40625 17.59375 
Q 52.90625 15 53 12.296875 
Q 53.09375 9.59375 53.1875 7.25 
Q 53.296875 4.90625 53.640625 3 
Q 54 1.09375 55 0 
L 65.59375 0 
Q 64.09375 1.796875 63.34375 4.140625 
Q 62.59375 6.5 62.1875 9.09375 
Q 61.796875 11.703125 61.6875 14.390625 
Q 61.59375 17.09375 61.40625 19.703125 
Q 61.09375 22.296875 60.546875 24.6875 
Q 60 27.09375 58.84375 29.046875 
Q 57.703125 31 55.75 32.390625 
Q 53.796875 33.796875 50.703125 34.40625 
L 50.703125 34.59375 
Q 57.203125 36.40625 60.140625 41.296875 
Q 63.09375 46.203125 63.09375 52.703125 
Q 63.09375 61.40625 57.34375 66.40625 
Q 51.59375 71.40625 41.40625 71.40625 
z
M 37.09375 38.5 
L 17.296875 38.5 
L 17.296875 63.40625 
L 40.90625 63.40625 
Q 47.59375 63.40625 50.59375 60 
Q 53.59375 56.59375 53.59375 51.203125 
Q 53.59375 47.296875 52.25 44.84375 
Q 50.90625 42.40625 48.65625 40.953125 
Q 46.40625 39.5 43.40625 39 
Q 40.40625 38.5 37.09375 38.5 
z
" id="HelveticaNeue-82"/>
     <path d="M 6.90625 71.40625 
L 6.90625 0 
L 15.40625 0 
L 15.40625 71.40625 
z
" id="HelveticaNeue-108"/>
    </defs>
    <g style="fill:#555555;" transform="translate(134.396563 15.92)scale(0.14 -0.14)">
     <use xlink:href="#HelveticaNeue-67"/>
     <use x="72.199982" xlink:href="#HelveticaNeue-111"/>
     <use x="129.599976" xlink:href="#HelveticaNeue-110"/>
     <use x="185.199966" xlink:href="#HelveticaNeue-115"/>
     <use x="235.199951" xlink:href="#HelveticaNeue-117"/>
     <use x="290.799942" xlink:href="#HelveticaNeue-109"/>
     <use x="376.09993" xlink:href="#HelveticaNeue-112"/>
     <use x="435.399918" xlink:href="#HelveticaNeue-116"/>
     <use x="466.899902" xlink:href="#HelveticaNeue-105"/>
     <use x="489.099899" xlink:href="#HelveticaNeue-111"/>
     <use x="546.499893" xlink:href="#HelveticaNeue-110"/>
     <use x="602.099884" xlink:href="#HelveticaNeue-32"/>
     <use x="629.899872" xlink:href="#HelveticaNeue-68"/>
     <use x="700.299866" xlink:href="#HelveticaNeue-101"/>
     <use x="753.999863" xlink:href="#HelveticaNeue-99"/>
     <use x="807.69986" xlink:href="#HelveticaNeue-105"/>
     <use x="829.899857" xlink:href="#HelveticaNeue-115"/>
     <use x="879.899841" xlink:href="#HelveticaNeue-105"/>
     <use x="902.099838" xlink:href="#HelveticaNeue-111"/>
     <use x="959.499832" xlink:href="#HelveticaNeue-110"/>
     <use x="1015.099823" xlink:href="#HelveticaNeue-32"/>
     <use x="1042.899811" xlink:href="#HelveticaNeue-82"/>
     <use x="1111.399796" xlink:href="#HelveticaNeue-117"/>
     <use x="1166.999786" xlink:href="#HelveticaNeue-108"/>
     <use x="1189.199783" xlink:href="#HelveticaNeue-101"/>
    </g>
   </g>
   <g id="legend_1">
    <g id="line2d_31">
     <path d="M 294.929688 223.21875 
L 314.929688 223.21875 
" style="fill:none;stroke:#b3220f;stroke-linecap:square;stroke-width:1.5;"/>
    </g>
    <g id="line2d_32"/>
    <g id="text_18">
     <!-- Unemployed -->
     <defs>
      <path d="M 64.796875 25.796875 
L 64.796875 71.40625 
L 55.296875 71.40625 
L 55.296875 25.796875 
Q 55.296875 16.203125 50.546875 11.25 
Q 45.796875 6.296875 36.703125 6.296875 
Q 27.09375 6.296875 22 11.25 
Q 16.90625 16.203125 16.90625 25.796875 
L 16.90625 71.40625 
L 7.40625 71.40625 
L 7.40625 25.796875 
Q 7.40625 11.5 15.15625 4.953125 
Q 22.90625 -1.59375 36.703125 -1.59375 
Q 50.203125 -1.59375 57.5 5.25 
Q 64.796875 12.09375 64.796875 25.796875 
z
" id="HelveticaNeue-85"/>
      <path d="M 26.703125 -6.90625 
Q 25.203125 -10.703125 23.75 -13.296875 
Q 22.296875 -15.90625 20.546875 -17.546875 
Q 18.796875 -19.203125 16.640625 -19.953125 
Q 14.5 -20.703125 11.703125 -20.703125 
Q 10.203125 -20.703125 8.703125 -20.5 
Q 7.203125 -20.296875 5.796875 -19.796875 
L 5.796875 -12 
Q 6.90625 -12.5 8.34375 -12.84375 
Q 9.796875 -13.203125 10.796875 -13.203125 
Q 13.40625 -13.203125 15.15625 -11.953125 
Q 16.90625 -10.703125 17.796875 -8.40625 
L 21.296875 0.296875 
L 0.796875 51.703125 
L 10.40625 51.703125 
L 25.5 9.40625 
L 25.703125 9.40625 
L 40.203125 51.703125 
L 49.203125 51.703125 
z
" id="HelveticaNeue-121"/>
      <path d="M 12.59375 25.40625 
Q 12.59375 29.203125 13.390625 32.796875 
Q 14.203125 36.40625 16 39.203125 
Q 17.796875 42 20.796875 43.703125 
Q 23.796875 45.40625 28.09375 45.40625 
Q 32.5 45.40625 35.59375 43.75 
Q 38.703125 42.09375 40.640625 39.390625 
Q 42.59375 36.703125 43.5 33.140625 
Q 44.40625 29.59375 44.40625 25.796875 
Q 44.40625 22.203125 43.546875 18.703125 
Q 42.703125 15.203125 40.796875 12.453125 
Q 38.90625 9.703125 35.90625 8 
Q 32.90625 6.296875 28.59375 6.296875 
Q 24.5 6.296875 21.453125 7.890625 
Q 18.40625 9.5 16.453125 12.203125 
Q 14.5 14.90625 13.546875 18.34375 
Q 12.59375 21.796875 12.59375 25.40625 
z
M 52.59375 0 
L 52.59375 71.40625 
L 44.09375 71.40625 
L 44.09375 44.796875 
L 43.90625 44.796875 
Q 42.5 47.09375 40.453125 48.640625 
Q 38.40625 50.203125 36.09375 51.140625 
Q 33.796875 52.09375 31.5 52.5 
Q 29.203125 52.90625 27.203125 52.90625 
Q 21.296875 52.90625 16.84375 50.75 
Q 12.40625 48.59375 9.453125 44.9375 
Q 6.5 41.296875 5.046875 36.390625 
Q 3.59375 31.5 3.59375 26 
Q 3.59375 20.5 5.09375 15.59375 
Q 6.59375 10.703125 9.546875 7 
Q 12.5 3.296875 16.953125 1.09375 
Q 21.40625 -1.09375 27.40625 -1.09375 
Q 32.796875 -1.09375 37.296875 0.796875 
Q 41.796875 2.703125 43.90625 7 
L 44.09375 7 
L 44.09375 0 
z
" id="HelveticaNeue-100"/>
     </defs>
     <g style="fill:#555555;" transform="translate(322.929688 226.71875)scale(0.1 -0.1)">
      <use xlink:href="#HelveticaNeue-85"/>
      <use x="72.199982" xlink:href="#HelveticaNeue-110"/>
      <use x="127.799973" xlink:href="#HelveticaNeue-101"/>
      <use x="181.499969" xlink:href="#HelveticaNeue-109"/>
      <use x="266.799957" xlink:href="#HelveticaNeue-112"/>
      <use x="326.099945" xlink:href="#HelveticaNeue-108"/>
      <use x="348.299942" xlink:href="#HelveticaNeue-111"/>
      <use x="405.699936" xlink:href="#HelveticaNeue-121"/>
      <use x="455.699921" xlink:href="#HelveticaNeue-101"/>
      <use x="509.399918" xlink:href="#HelveticaNeue-100"/>
     </g>
    </g>
    <g id="line2d_33">
     <path d="M 294.929688 237.429688 
L 314.929688 237.429688 
" style="fill:none;stroke:#f16e53;stroke-linecap:square;stroke-width:1.5;"/>
    </g>
    <g id="line2d_34"/>
    <g id="text_19">
     <!-- Employed -->
     <defs>
      <path d="M 7.796875 71.40625 
L 7.796875 0 
L 57.40625 0 
L 57.40625 8 
L 17.296875 8 
L 17.296875 32.703125 
L 54.40625 32.703125 
L 54.40625 40.703125 
L 17.296875 40.703125 
L 17.296875 63.40625 
L 57.09375 63.40625 
L 57.09375 71.40625 
z
" id="HelveticaNeue-69"/>
     </defs>
     <g style="fill:#555555;" transform="translate(322.929688 240.929688)scale(0.1 -0.1)">
      <use xlink:href="#HelveticaNeue-69"/>
      <use x="61.099991" xlink:href="#HelveticaNeue-109"/>
      <use x="146.399979" xlink:href="#HelveticaNeue-112"/>
      <use x="205.699966" xlink:href="#HelveticaNeue-108"/>
      <use x="227.899963" xlink:href="#HelveticaNeue-111"/>
      <use x="285.299957" xlink:href="#HelveticaNeue-121"/>
      <use x="335.299942" xlink:href="#HelveticaNeue-101"/>
      <use x="388.999939" xlink:href="#HelveticaNeue-100"/>
     </g>
    </g>
   </g>
  </g>
 </g>
 <defs>
  <clipPath id="pb75ba5f79f">
   <rect height="226.08" width="334.8" x="54" y="25.92"/>
  </clipPath>
 </defs>
</svg>
