<?xml version="1.0" encoding="utf-8" standalone="no"?>
<!DOCTYPE svg PUBLIC "-//W3C//DTD SVG 1.1//EN"
  "http://www.w3.org/Graphics/SVG/1.1/DTD/svg11.dtd">
<!-- Created with matplotlib (https://matplotlib.org/) -->
<svg height="288pt" version="1.1" viewBox="0 0 432 288" width="432pt" xmlns="http://www.w3.org/2000/svg" xmlns:xlink="http://www.w3.org/1999/xlink">
 <defs>
  <style type="text/css">
*{stroke-linecap:butt;stroke-linejoin:round;}
  </style>
 </defs>
 <g id="figure_1">
  <g id="patch_1">
   <path d="M 0 288 
L 432 288 
L 432 0 
L 0 0 
z
" style="fill:#ffffff;"/>
  </g>
  <g id="axes_1">
   <g id="patch_2">
    <path d="M 54 252 
L 388.8 252 
L 388.8 25.92 
L 54 25.92 
z
" style="fill:#ffffff;"/>
   </g>
   <g id="matplotlib.axis_1">
    <g id="xtick_1">
     <g id="line2d_1">
      <path clip-path="url(#pf2ab348a6f)" d="M 54 252 
L 54 25.92 
" style="fill:none;stroke:#eeeeee;stroke-linecap:square;stroke-width:0.8;"/>
     </g>
     <g id="line2d_2">
      <defs>
       <path d="M 0 0 
L 0 3.5 
" id="m1e4b60e61b" style="stroke:#555555;stroke-width:0.8;"/>
      </defs>
      <g>
       <use style="fill:#555555;stroke:#555555;stroke-width:0.8;" x="54" xlink:href="#m1e4b60e61b" y="252"/>
      </g>
     </g>
     <g id="text_1">
      <!-- 0 -->
      <defs>
       <path d="M 13.203125 34.90625 
Q 13.203125 37.5 13.25 40.640625 
Q 13.296875 43.796875 13.75 46.9375 
Q 14.203125 50.09375 15.046875 53.09375 
Q 15.90625 56.09375 17.546875 58.34375 
Q 19.203125 60.59375 21.703125 62 
Q 24.203125 63.40625 27.796875 63.40625 
Q 31.40625 63.40625 33.90625 62 
Q 36.40625 60.59375 38.046875 58.34375 
Q 39.703125 56.09375 40.546875 53.09375 
Q 41.40625 50.09375 41.84375 46.9375 
Q 42.296875 43.796875 42.34375 40.640625 
Q 42.40625 37.5 42.40625 34.90625 
Q 42.40625 30.90625 42.15625 25.953125 
Q 41.90625 21 40.546875 16.640625 
Q 39.203125 12.296875 36.203125 9.296875 
Q 33.203125 6.296875 27.796875 6.296875 
Q 22.40625 6.296875 19.40625 9.296875 
Q 16.40625 12.296875 15.046875 16.640625 
Q 13.703125 21 13.453125 25.953125 
Q 13.203125 30.90625 13.203125 34.90625 
z
M 4.203125 34.796875 
Q 4.203125 30.90625 4.390625 26.703125 
Q 4.59375 22.5 5.390625 18.5 
Q 6.203125 14.5 7.703125 10.953125 
Q 9.203125 7.40625 11.796875 4.703125 
Q 14.40625 2 18.34375 0.453125 
Q 22.296875 -1.09375 27.796875 -1.09375 
Q 33.40625 -1.09375 37.296875 0.453125 
Q 41.203125 2 43.796875 4.703125 
Q 46.40625 7.40625 47.90625 10.953125 
Q 49.40625 14.5 50.203125 18.5 
Q 51 22.5 51.203125 26.703125 
Q 51.40625 30.90625 51.40625 34.796875 
Q 51.40625 38.703125 51.203125 42.890625 
Q 51 47.09375 50.203125 51.09375 
Q 49.40625 55.09375 47.90625 58.6875 
Q 46.40625 62.296875 43.796875 65 
Q 41.203125 67.703125 37.25 69.296875 
Q 33.296875 70.90625 27.796875 70.90625 
Q 22.296875 70.90625 18.34375 69.296875 
Q 14.40625 67.703125 11.796875 65 
Q 9.203125 62.296875 7.703125 58.6875 
Q 6.203125 55.09375 5.390625 51.09375 
Q 4.59375 47.09375 4.390625 42.890625 
Q 4.203125 38.703125 4.203125 34.796875 
z
" id="HelveticaNeue-48"/>
      </defs>
      <g style="fill:#555555;" transform="translate(51.220312 266.140625)scale(0.1 -0.1)">
       <use xlink:href="#HelveticaNeue-48"/>
      </g>
     </g>
    </g>
    <g id="xtick_2">
     <g id="line2d_3">
      <path clip-path="url(#pf2ab348a6f)" d="M 116.101461 252 
L 116.101461 25.92 
" style="fill:none;stroke:#eeeeee;stroke-linecap:square;stroke-width:0.8;"/>
     </g>
     <g id="line2d_4">
      <g>
       <use style="fill:#555555;stroke:#555555;stroke-width:0.8;" x="116.101461" xlink:href="#m1e4b60e61b" y="252"/>
      </g>
     </g>
     <g id="text_2">
      <!-- 2 -->
      <defs>
       <path d="M 4.40625 45.796875 
L 12.90625 45.796875 
Q 12.796875 49 13.546875 52.140625 
Q 14.296875 55.296875 16 57.796875 
Q 17.703125 60.296875 20.34375 61.84375 
Q 23 63.40625 26.703125 63.40625 
Q 29.5 63.40625 32 62.5 
Q 34.5 61.59375 36.34375 59.890625 
Q 38.203125 58.203125 39.296875 55.84375 
Q 40.40625 53.5 40.40625 50.59375 
Q 40.40625 46.90625 39.25 44.09375 
Q 38.09375 41.296875 35.84375 38.890625 
Q 33.59375 36.5 30.1875 34.140625 
Q 26.796875 31.796875 22.296875 29 
Q 18.59375 26.796875 15.1875 24.296875 
Q 11.796875 21.796875 9.09375 18.5 
Q 6.40625 15.203125 4.65625 10.75 
Q 2.90625 6.296875 2.40625 0 
L 48.703125 0 
L 48.703125 7.5 
L 12.296875 7.5 
Q 12.90625 10.796875 14.84375 13.34375 
Q 16.796875 15.90625 19.546875 18.09375 
Q 22.296875 20.296875 25.59375 22.25 
Q 28.90625 24.203125 32.203125 26.203125 
Q 35.5 28.296875 38.59375 30.59375 
Q 41.703125 32.90625 44.09375 35.75 
Q 46.5 38.59375 47.953125 42.1875 
Q 49.40625 45.796875 49.40625 50.5 
Q 49.40625 55.5 47.65625 59.296875 
Q 45.90625 63.09375 42.90625 65.640625 
Q 39.90625 68.203125 35.84375 69.546875 
Q 31.796875 70.90625 27.203125 70.90625 
Q 21.59375 70.90625 17.1875 69 
Q 12.796875 67.09375 9.84375 63.75 
Q 6.90625 60.40625 5.5 55.796875 
Q 4.09375 51.203125 4.40625 45.796875 
z
" id="HelveticaNeue-50"/>
      </defs>
      <g style="fill:#555555;" transform="translate(113.321774 266.140625)scale(0.1 -0.1)">
       <use xlink:href="#HelveticaNeue-50"/>
      </g>
     </g>
    </g>
    <g id="xtick_3">
     <g id="line2d_5">
      <path clip-path="url(#pf2ab348a6f)" d="M 178.202922 252 
L 178.202922 25.92 
" style="fill:none;stroke:#eeeeee;stroke-linecap:square;stroke-width:0.8;"/>
     </g>
     <g id="line2d_6">
      <g>
       <use style="fill:#555555;stroke:#555555;stroke-width:0.8;" x="178.202922" xlink:href="#m1e4b60e61b" y="252"/>
      </g>
     </g>
     <g id="text_3">
      <!-- 4 -->
      <defs>
       <path d="M 33.90625 24.09375 
L 10.09375 24.09375 
L 33.703125 58.796875 
L 33.90625 58.796875 
z
M 41.90625 24.09375 
L 41.90625 70.90625 
L 35.09375 70.90625 
L 2.796875 24.796875 
L 2.796875 16.59375 
L 33.90625 16.59375 
L 33.90625 0 
L 41.90625 0 
L 41.90625 16.59375 
L 51.5 16.59375 
L 51.5 24.09375 
z
" id="HelveticaNeue-52"/>
      </defs>
      <g style="fill:#555555;" transform="translate(175.423235 266.140625)scale(0.1 -0.1)">
       <use xlink:href="#HelveticaNeue-52"/>
      </g>
     </g>
    </g>
    <g id="xtick_4">
     <g id="line2d_7">
      <path clip-path="url(#pf2ab348a6f)" d="M 240.304383 252 
L 240.304383 25.92 
" style="fill:none;stroke:#eeeeee;stroke-linecap:square;stroke-width:0.8;"/>
     </g>
     <g id="line2d_8">
      <g>
       <use style="fill:#555555;stroke:#555555;stroke-width:0.8;" x="240.304383" xlink:href="#m1e4b60e61b" y="252"/>
      </g>
     </g>
     <g id="text_4">
      <!-- 6 -->
      <defs>
       <path d="M 41.40625 52.796875 
L 49.90625 52.796875 
Q 49.09375 61.59375 43.890625 66.25 
Q 38.703125 70.90625 29.90625 70.90625 
Q 22.296875 70.90625 17.296875 67.703125 
Q 12.296875 64.5 9.296875 59.203125 
Q 6.296875 53.90625 5.046875 47.046875 
Q 3.796875 40.203125 3.796875 32.90625 
Q 3.796875 27.296875 4.640625 21.296875 
Q 5.5 15.296875 8.09375 10.296875 
Q 10.703125 5.296875 15.5 2.09375 
Q 20.296875 -1.09375 28.203125 -1.09375 
Q 34.90625 -1.09375 39.453125 1.15625 
Q 44 3.40625 46.75 6.84375 
Q 49.5 10.296875 50.703125 14.5 
Q 51.90625 18.703125 51.90625 22.59375 
Q 51.90625 27.5 50.40625 31.703125 
Q 48.90625 35.90625 46.15625 39 
Q 43.40625 42.09375 39.34375 43.84375 
Q 35.296875 45.59375 30.203125 45.59375 
Q 24.40625 45.59375 19.953125 43.390625 
Q 15.5 41.203125 12.5 36.296875 
L 12.296875 36.5 
Q 12.40625 40.59375 13.09375 45.296875 
Q 13.796875 50 15.640625 54.046875 
Q 17.5 58.09375 20.796875 60.75 
Q 24.09375 63.40625 29.5 63.40625 
Q 34.59375 63.40625 37.6875 60.5 
Q 40.796875 57.59375 41.40625 52.796875 
z
M 28.59375 38.09375 
Q 32.203125 38.09375 34.890625 36.796875 
Q 37.59375 35.5 39.390625 33.34375 
Q 41.203125 31.203125 42.046875 28.25 
Q 42.90625 25.296875 42.90625 22 
Q 42.90625 18.90625 41.953125 16.046875 
Q 41 13.203125 39.203125 11 
Q 37.40625 8.796875 34.75 7.546875 
Q 32.09375 6.296875 28.59375 6.296875 
Q 25.09375 6.296875 22.34375 7.546875 
Q 19.59375 8.796875 17.75 10.890625 
Q 15.90625 13 14.90625 15.890625 
Q 13.90625 18.796875 13.90625 22.09375 
Q 13.90625 25.40625 14.84375 28.34375 
Q 15.796875 31.296875 17.6875 33.4375 
Q 19.59375 35.59375 22.296875 36.84375 
Q 25 38.09375 28.59375 38.09375 
z
" id="HelveticaNeue-54"/>
      </defs>
      <g style="fill:#555555;" transform="translate(237.524696 266.140625)scale(0.1 -0.1)">
       <use xlink:href="#HelveticaNeue-54"/>
      </g>
     </g>
    </g>
    <g id="xtick_5">
     <g id="line2d_9">
      <path clip-path="url(#pf2ab348a6f)" d="M 302.405844 252 
L 302.405844 25.92 
" style="fill:none;stroke:#eeeeee;stroke-linecap:square;stroke-width:0.8;"/>
     </g>
     <g id="line2d_10">
      <g>
       <use style="fill:#555555;stroke:#555555;stroke-width:0.8;" x="302.405844" xlink:href="#m1e4b60e61b" y="252"/>
      </g>
     </g>
     <g id="text_5">
      <!-- 8 -->
      <defs>
       <path d="M 15.5 52.5 
Q 15.5 55.203125 16.5 57.203125 
Q 17.5 59.203125 19.140625 60.59375 
Q 20.796875 62 23.09375 62.703125 
Q 25.40625 63.40625 27.90625 63.40625 
Q 33.09375 63.40625 36.4375 60.65625 
Q 39.796875 57.90625 39.796875 52.5 
Q 39.796875 47.09375 36.5 44.09375 
Q 33.203125 41.09375 28.09375 41.09375 
Q 25.5 41.09375 23.203125 41.796875 
Q 20.90625 42.5 19.203125 43.890625 
Q 17.5 45.296875 16.5 47.4375 
Q 15.5 49.59375 15.5 52.5 
z
M 6.5 52.796875 
Q 6.5 48 9.203125 43.953125 
Q 11.90625 39.90625 16.40625 38.09375 
Q 10.40625 36 7.203125 31.34375 
Q 4 26.703125 4 20.40625 
Q 4 15 5.84375 10.953125 
Q 7.703125 6.90625 10.953125 4.203125 
Q 14.203125 1.5 18.59375 0.203125 
Q 23 -1.09375 28.09375 -1.09375 
Q 33 -1.09375 37.296875 0.296875 
Q 41.59375 1.703125 44.75 4.453125 
Q 47.90625 7.203125 49.75 11.203125 
Q 51.59375 15.203125 51.59375 20.40625 
Q 51.59375 27 48.5 31.546875 
Q 45.40625 36.09375 39 38.09375 
Q 43.5 40.09375 46.140625 44.046875 
Q 48.796875 48 48.796875 52.796875 
Q 48.796875 56.203125 47.59375 59.453125 
Q 46.40625 62.703125 43.84375 65.25 
Q 41.296875 67.796875 37.1875 69.34375 
Q 33.09375 70.90625 27.296875 70.90625 
Q 23.203125 70.90625 19.453125 69.703125 
Q 15.703125 68.5 12.796875 66.203125 
Q 9.90625 63.90625 8.203125 60.546875 
Q 6.5 57.203125 6.5 52.796875 
z
M 13 20 
Q 13 23.09375 14.140625 25.59375 
Q 15.296875 28.09375 17.34375 29.890625 
Q 19.40625 31.703125 22.15625 32.640625 
Q 24.90625 33.59375 28 33.59375 
Q 31 33.59375 33.640625 32.546875 
Q 36.296875 31.5 38.296875 29.703125 
Q 40.296875 27.90625 41.4375 25.453125 
Q 42.59375 23 42.59375 20.09375 
Q 42.59375 17.09375 41.546875 14.59375 
Q 40.5 12.09375 38.546875 10.25 
Q 36.59375 8.40625 33.9375 7.34375 
Q 31.296875 6.296875 28.09375 6.296875 
Q 21.5 6.296875 17.25 9.9375 
Q 13 13.59375 13 20 
z
" id="HelveticaNeue-56"/>
      </defs>
      <g style="fill:#555555;" transform="translate(299.626157 266.140625)scale(0.1 -0.1)">
       <use xlink:href="#HelveticaNeue-56"/>
      </g>
     </g>
    </g>
    <g id="xtick_6">
     <g id="line2d_11">
      <path clip-path="url(#pf2ab348a6f)" d="M 364.507305 252 
L 364.507305 25.92 
" style="fill:none;stroke:#eeeeee;stroke-linecap:square;stroke-width:0.8;"/>
     </g>
     <g id="line2d_12">
      <g>
       <use style="fill:#555555;stroke:#555555;stroke-width:0.8;" x="364.507305" xlink:href="#m1e4b60e61b" y="252"/>
      </g>
     </g>
     <g id="text_6">
      <!-- 10 -->
      <defs>
       <path d="M 35.59375 0 
L 35.59375 70.90625 
L 29.09375 70.90625 
Q 28.40625 66.90625 26.5 64.296875 
Q 24.59375 61.703125 21.84375 60.203125 
Q 19.09375 58.703125 15.6875 58.140625 
Q 12.296875 57.59375 8.703125 57.59375 
L 8.703125 50.796875 
L 27.09375 50.796875 
L 27.09375 0 
z
" id="HelveticaNeue-49"/>
      </defs>
      <g style="fill:#555555;" transform="translate(358.94793 266.140625)scale(0.1 -0.1)">
       <use xlink:href="#HelveticaNeue-49"/>
       <use x="55.599991" xlink:href="#HelveticaNeue-48"/>
      </g>
     </g>
    </g>
    <g id="text_7">
     <!-- Assets, $a$ -->
     <defs>
      <path d="M 20.09375 29.5 
L 32.203125 62.796875 
L 32.40625 62.796875 
L 44.296875 29.5 
z
M 27.203125 71.40625 
L -0.59375 0 
L 9.09375 0 
L 17.09375 21.5 
L 47.296875 21.5 
L 55.09375 0 
L 65.59375 0 
L 37.703125 71.40625 
z
" id="HelveticaNeue-65"/>
      <path d="M 11.59375 16.296875 
L 3.09375 16.296875 
Q 3.296875 11.5 5.09375 8.140625 
Q 6.90625 4.796875 9.90625 2.75 
Q 12.90625 0.703125 16.796875 -0.1875 
Q 20.703125 -1.09375 25 -1.09375 
Q 28.90625 -1.09375 32.84375 -0.34375 
Q 36.796875 0.40625 39.9375 2.296875 
Q 43.09375 4.203125 45.046875 7.296875 
Q 47 10.40625 47 15.09375 
Q 47 18.796875 45.546875 21.296875 
Q 44.09375 23.796875 41.75 25.4375 
Q 39.40625 27.09375 36.34375 28.09375 
Q 33.296875 29.09375 30.09375 29.796875 
Q 27.09375 30.5 24.09375 31.140625 
Q 21.09375 31.796875 18.6875 32.75 
Q 16.296875 33.703125 14.75 35.140625 
Q 13.203125 36.59375 13.203125 38.796875 
Q 13.203125 40.796875 14.203125 42.046875 
Q 15.203125 43.296875 16.796875 44.046875 
Q 18.40625 44.796875 20.34375 45.09375 
Q 22.296875 45.40625 24.203125 45.40625 
Q 26.296875 45.40625 28.34375 44.953125 
Q 30.40625 44.5 32.09375 43.5 
Q 33.796875 42.5 34.890625 40.84375 
Q 36 39.203125 36.203125 36.703125 
L 44.703125 36.703125 
Q 44.40625 41.40625 42.703125 44.546875 
Q 41 47.703125 38.140625 49.546875 
Q 35.296875 51.40625 31.59375 52.15625 
Q 27.90625 52.90625 23.5 52.90625 
Q 20.09375 52.90625 16.640625 52.046875 
Q 13.203125 51.203125 10.453125 49.453125 
Q 7.703125 47.703125 5.953125 44.890625 
Q 4.203125 42.09375 4.203125 38.203125 
Q 4.203125 33.203125 6.703125 30.390625 
Q 9.203125 27.59375 12.953125 26.046875 
Q 16.703125 24.5 21.09375 23.640625 
Q 25.5 22.796875 29.25 21.75 
Q 33 20.703125 35.5 19 
Q 38 17.296875 38 14 
Q 38 11.59375 36.796875 10.046875 
Q 35.59375 8.5 33.75 7.703125 
Q 31.90625 6.90625 29.703125 6.59375 
Q 27.5 6.296875 25.5 6.296875 
Q 22.90625 6.296875 20.453125 6.796875 
Q 18 7.296875 16.046875 8.4375 
Q 14.09375 9.59375 12.890625 11.546875 
Q 11.703125 13.5 11.59375 16.296875 
z
" id="HelveticaNeue-115"/>
      <path d="M 42.296875 30.796875 
L 12.59375 30.796875 
Q 12.796875 33.796875 13.890625 36.4375 
Q 15 39.09375 16.890625 41.09375 
Q 18.796875 43.09375 21.4375 44.25 
Q 24.09375 45.40625 27.40625 45.40625 
Q 30.59375 45.40625 33.25 44.25 
Q 35.90625 43.09375 37.84375 41.140625 
Q 39.796875 39.203125 40.9375 36.5 
Q 42.09375 33.796875 42.296875 30.796875 
z
M 50.5 16.40625 
L 42.09375 16.40625 
Q 41 11.296875 37.546875 8.796875 
Q 34.09375 6.296875 28.703125 6.296875 
Q 24.5 6.296875 21.390625 7.6875 
Q 18.296875 9.09375 16.296875 11.4375 
Q 14.296875 13.796875 13.390625 16.84375 
Q 12.5 19.90625 12.59375 23.296875 
L 51.296875 23.296875 
Q 51.5 28 50.453125 33.203125 
Q 49.40625 38.40625 46.65625 42.796875 
Q 43.90625 47.203125 39.34375 50.046875 
Q 34.796875 52.90625 27.90625 52.90625 
Q 22.59375 52.90625 18.140625 50.90625 
Q 13.703125 48.90625 10.453125 45.296875 
Q 7.203125 41.703125 5.390625 36.796875 
Q 3.59375 31.90625 3.59375 26 
Q 3.796875 20.09375 5.34375 15.09375 
Q 6.90625 10.09375 10 6.5 
Q 13.09375 2.90625 17.640625 0.90625 
Q 22.203125 -1.09375 28.40625 -1.09375 
Q 37.203125 -1.09375 43 3.296875 
Q 48.796875 7.703125 50.5 16.40625 
z
" id="HelveticaNeue-101"/>
      <path d="M 18.203125 51.703125 
L 18.203125 67.203125 
L 9.703125 67.203125 
L 9.703125 51.703125 
L 0.90625 51.703125 
L 0.90625 44.203125 
L 9.703125 44.203125 
L 9.703125 11.296875 
Q 9.703125 7.703125 10.390625 5.5 
Q 11.09375 3.296875 12.546875 2.09375 
Q 14 0.90625 16.34375 0.453125 
Q 18.703125 0 22 0 
L 28.5 0 
L 28.5 7.5 
L 24.59375 7.5 
Q 22.59375 7.5 21.34375 7.640625 
Q 20.09375 7.796875 19.390625 8.296875 
Q 18.703125 8.796875 18.453125 9.6875 
Q 18.203125 10.59375 18.203125 12.09375 
L 18.203125 44.203125 
L 28.5 44.203125 
L 28.5 51.703125 
z
" id="HelveticaNeue-116"/>
      <path d="M 8.296875 11.09375 
L 8.296875 0 
L 14.203125 0 
Q 14.296875 -1.203125 14.046875 -2.59375 
Q 13.796875 -4 13.09375 -5.34375 
Q 12.40625 -6.703125 11.25 -7.84375 
Q 10.09375 -9 8.40625 -9.59375 
L 8.40625 -14.59375 
Q 14.203125 -12.90625 16.796875 -8.796875 
Q 19.40625 -4.703125 19.40625 1 
L 19.40625 11.09375 
z
" id="HelveticaNeue-44"/>
      <path id="HelveticaNeue-32"/>
      <path d="M 32.90625 24.609375 
Q 26.375 24.609375 23.015625 22.578125 
Q 19.671875 20.5625 19.671875 16.609375 
Q 19.671875 13.625 21.65625 11.90625 
Q 23.640625 10.203125 27.09375 10.203125 
Q 32.46875 10.203125 36.078125 13.453125 
Q 39.703125 16.703125 40.921875 22.609375 
L 41.3125 24.609375 
z
M 60.203125 31.203125 
L 54.109375 0 
L 36.625 0 
L 38.09375 8.109375 
Q 33.796875 3.21875 29 0.890625 
Q 24.21875 -1.421875 18.609375 -1.421875 
Q 10.84375 -1.421875 6.265625 2.609375 
Q 1.703125 6.640625 1.703125 13.484375 
Q 1.703125 23.921875 9.78125 29.46875 
Q 17.875 35.015625 33.109375 35.015625 
L 43.40625 35.015625 
L 43.609375 36.375 
Q 43.75 37.0625 43.765625 37.34375 
Q 43.796875 37.640625 43.796875 37.890625 
Q 43.796875 41.109375 40.75 42.75 
Q 37.703125 44.390625 31.6875 44.390625 
Q 26.265625 44.390625 21.1875 43.265625 
Q 16.109375 42.140625 11.375 39.890625 
L 14.015625 53.21875 
Q 19.484375 54.59375 25.21875 55.296875 
Q 30.953125 56 37.109375 56 
Q 49.265625 56 55.171875 51.828125 
Q 61.078125 47.65625 61.078125 39.109375 
Q 61.078125 37.453125 60.859375 35.46875 
Q 60.640625 33.5 60.203125 31.203125 
z
" id="DejaVuSans-BoldOblique-97"/>
     </defs>
     <g style="fill:#555555;" transform="translate(200.2 279.251562)scale(0.1 -0.1)">
      <use transform="translate(0 0.59375)" xlink:href="#HelveticaNeue-65"/>
      <use transform="translate(64.799988 0.59375)" xlink:href="#HelveticaNeue-115"/>
      <use transform="translate(114.799973 0.59375)" xlink:href="#HelveticaNeue-115"/>
      <use transform="translate(164.799957 0.59375)" xlink:href="#HelveticaNeue-101"/>
      <use transform="translate(218.499954 0.59375)" xlink:href="#HelveticaNeue-116"/>
      <use transform="translate(249.999939 0.59375)" xlink:href="#HelveticaNeue-115"/>
      <use transform="translate(299.999924 0.59375)" xlink:href="#HelveticaNeue-44"/>
      <use transform="translate(327.799911 0.59375)" xlink:href="#HelveticaNeue-32"/>
      <use transform="translate(355.599899 0.59375)" xlink:href="#DejaVuSans-BoldOblique-97"/>
     </g>
    </g>
   </g>
   <g id="matplotlib.axis_2">
    <g id="ytick_1">
     <g id="line2d_13">
      <path clip-path="url(#pf2ab348a6f)" d="M 54 252 
L 388.8 252 
" style="fill:none;stroke:#eeeeee;stroke-linecap:square;stroke-width:0.8;"/>
     </g>
     <g id="line2d_14">
      <defs>
       <path d="M 0 0 
L -3.5 0 
" id="m70819a60b3" style="stroke:#555555;stroke-width:0.8;"/>
      </defs>
      <g>
       <use style="fill:#555555;stroke:#555555;stroke-width:0.8;" x="54" xlink:href="#m70819a60b3" y="252"/>
      </g>
     </g>
     <g id="text_8">
      <!-- 0.000 -->
      <defs>
       <path d="M 8.296875 11.09375 
L 8.296875 0 
L 19.40625 0 
L 19.40625 11.09375 
z
" id="HelveticaNeue-46"/>
      </defs>
      <g style="fill:#555555;" transform="translate(21.982812 255.570312)scale(0.1 -0.1)">
       <use xlink:href="#HelveticaNeue-48"/>
       <use x="55.599991" xlink:href="#HelveticaNeue-46"/>
       <use x="83.399979" xlink:href="#HelveticaNeue-48"/>
       <use x="138.999969" xlink:href="#HelveticaNeue-48"/>
       <use x="194.59996" xlink:href="#HelveticaNeue-48"/>
      </g>
     </g>
    </g>
    <g id="ytick_2">
     <g id="line2d_15">
      <path clip-path="url(#pf2ab348a6f)" d="M 54 222.252632 
L 388.8 222.252632 
" style="fill:none;stroke:#eeeeee;stroke-linecap:square;stroke-width:0.8;"/>
     </g>
     <g id="line2d_16">
      <g>
       <use style="fill:#555555;stroke:#555555;stroke-width:0.8;" x="54" xlink:href="#m70819a60b3" y="222.252632"/>
      </g>
     </g>
     <g id="text_9">
      <!-- 0.005 -->
      <defs>
       <path d="M 47 62.203125 
L 47 69.703125 
L 12 69.703125 
L 5.40625 32.90625 
L 12.703125 32.5 
Q 15.203125 35.5 18.453125 37.34375 
Q 21.703125 39.203125 25.90625 39.203125 
Q 29.5 39.203125 32.453125 38 
Q 35.40625 36.796875 37.5 34.640625 
Q 39.59375 32.5 40.75 29.546875 
Q 41.90625 26.59375 41.90625 23.09375 
Q 41.90625 18.90625 40.703125 15.75 
Q 39.5 12.59375 37.453125 10.5 
Q 35.40625 8.40625 32.65625 7.34375 
Q 29.90625 6.296875 26.90625 6.296875 
Q 23.703125 6.296875 21.046875 7.25 
Q 18.40625 8.203125 16.453125 9.953125 
Q 14.5 11.703125 13.34375 14.046875 
Q 12.203125 16.40625 12 19.09375 
L 3.5 19.09375 
Q 3.59375 14.296875 5.390625 10.5 
Q 7.203125 6.703125 10.296875 4.140625 
Q 13.40625 1.59375 17.453125 0.25 
Q 21.5 -1.09375 26.09375 -1.09375 
Q 32.296875 -1.09375 36.9375 0.84375 
Q 41.59375 2.796875 44.6875 6.09375 
Q 47.796875 9.40625 49.34375 13.65625 
Q 50.90625 17.90625 50.90625 22.40625 
Q 50.90625 28.5 49.09375 33.046875 
Q 47.296875 37.59375 44.1875 40.640625 
Q 41.09375 43.703125 36.890625 45.203125 
Q 32.703125 46.703125 28 46.703125 
Q 24.40625 46.703125 20.75 45.453125 
Q 17.09375 44.203125 14.796875 41.59375 
L 14.59375 41.796875 
L 18.40625 62.203125 
z
" id="HelveticaNeue-53"/>
      </defs>
      <g style="fill:#555555;" transform="translate(21.982812 225.822944)scale(0.1 -0.1)">
       <use xlink:href="#HelveticaNeue-48"/>
       <use x="55.599991" xlink:href="#HelveticaNeue-46"/>
       <use x="83.399979" xlink:href="#HelveticaNeue-48"/>
       <use x="138.999969" xlink:href="#HelveticaNeue-48"/>
       <use x="194.59996" xlink:href="#HelveticaNeue-53"/>
      </g>
     </g>
    </g>
    <g id="ytick_3">
     <g id="line2d_17">
      <path clip-path="url(#pf2ab348a6f)" d="M 54 192.505263 
L 388.8 192.505263 
" style="fill:none;stroke:#eeeeee;stroke-linecap:square;stroke-width:0.8;"/>
     </g>
     <g id="line2d_18">
      <g>
       <use style="fill:#555555;stroke:#555555;stroke-width:0.8;" x="54" xlink:href="#m70819a60b3" y="192.505263"/>
      </g>
     </g>
     <g id="text_10">
      <!-- 0.010 -->
      <g style="fill:#555555;" transform="translate(21.982812 196.075576)scale(0.1 -0.1)">
       <use xlink:href="#HelveticaNeue-48"/>
       <use x="55.599991" xlink:href="#HelveticaNeue-46"/>
       <use x="83.399979" xlink:href="#HelveticaNeue-48"/>
       <use x="138.999969" xlink:href="#HelveticaNeue-49"/>
       <use x="194.59996" xlink:href="#HelveticaNeue-48"/>
      </g>
     </g>
    </g>
    <g id="ytick_4">
     <g id="line2d_19">
      <path clip-path="url(#pf2ab348a6f)" d="M 54 162.757895 
L 388.8 162.757895 
" style="fill:none;stroke:#eeeeee;stroke-linecap:square;stroke-width:0.8;"/>
     </g>
     <g id="line2d_20">
      <g>
       <use style="fill:#555555;stroke:#555555;stroke-width:0.8;" x="54" xlink:href="#m70819a60b3" y="162.757895"/>
      </g>
     </g>
     <g id="text_11">
      <!-- 0.015 -->
      <g style="fill:#555555;" transform="translate(21.982812 166.328207)scale(0.1 -0.1)">
       <use xlink:href="#HelveticaNeue-48"/>
       <use x="55.599991" xlink:href="#HelveticaNeue-46"/>
       <use x="83.399979" xlink:href="#HelveticaNeue-48"/>
       <use x="138.999969" xlink:href="#HelveticaNeue-49"/>
       <use x="194.59996" xlink:href="#HelveticaNeue-53"/>
      </g>
     </g>
    </g>
    <g id="ytick_5">
     <g id="line2d_21">
      <path clip-path="url(#pf2ab348a6f)" d="M 54 133.010526 
L 388.8 133.010526 
" style="fill:none;stroke:#eeeeee;stroke-linecap:square;stroke-width:0.8;"/>
     </g>
     <g id="line2d_22">
      <g>
       <use style="fill:#555555;stroke:#555555;stroke-width:0.8;" x="54" xlink:href="#m70819a60b3" y="133.010526"/>
      </g>
     </g>
     <g id="text_12">
      <!-- 0.020 -->
      <g style="fill:#555555;" transform="translate(21.982812 136.580839)scale(0.1 -0.1)">
       <use xlink:href="#HelveticaNeue-48"/>
       <use x="55.599991" xlink:href="#HelveticaNeue-46"/>
       <use x="83.399979" xlink:href="#HelveticaNeue-48"/>
       <use x="138.999969" xlink:href="#HelveticaNeue-50"/>
       <use x="194.59996" xlink:href="#HelveticaNeue-48"/>
      </g>
     </g>
    </g>
    <g id="ytick_6">
     <g id="line2d_23">
      <path clip-path="url(#pf2ab348a6f)" d="M 54 103.263158 
L 388.8 103.263158 
" style="fill:none;stroke:#eeeeee;stroke-linecap:square;stroke-width:0.8;"/>
     </g>
     <g id="line2d_24">
      <g>
       <use style="fill:#555555;stroke:#555555;stroke-width:0.8;" x="54" xlink:href="#m70819a60b3" y="103.263158"/>
      </g>
     </g>
     <g id="text_13">
      <!-- 0.025 -->
      <g style="fill:#555555;" transform="translate(21.982812 106.83347)scale(0.1 -0.1)">
       <use xlink:href="#HelveticaNeue-48"/>
       <use x="55.599991" xlink:href="#HelveticaNeue-46"/>
       <use x="83.399979" xlink:href="#HelveticaNeue-48"/>
       <use x="138.999969" xlink:href="#HelveticaNeue-50"/>
       <use x="194.59996" xlink:href="#HelveticaNeue-53"/>
      </g>
     </g>
    </g>
    <g id="ytick_7">
     <g id="line2d_25">
      <path clip-path="url(#pf2ab348a6f)" d="M 54 73.515789 
L 388.8 73.515789 
" style="fill:none;stroke:#eeeeee;stroke-linecap:square;stroke-width:0.8;"/>
     </g>
     <g id="line2d_26">
      <g>
       <use style="fill:#555555;stroke:#555555;stroke-width:0.8;" x="54" xlink:href="#m70819a60b3" y="73.515789"/>
      </g>
     </g>
     <g id="text_14">
      <!-- 0.030 -->
      <defs>
       <path d="M 21.796875 40.5 
L 21.796875 33.296875 
Q 24.203125 33.59375 26.90625 33.59375 
Q 30.09375 33.59375 32.84375 32.75 
Q 35.59375 31.90625 37.59375 30.15625 
Q 39.59375 28.40625 40.796875 25.84375 
Q 42 23.296875 42 20 
Q 42 16.796875 40.75 14.25 
Q 39.5 11.703125 37.390625 9.953125 
Q 35.296875 8.203125 32.5 7.25 
Q 29.703125 6.296875 26.59375 6.296875 
Q 19.296875 6.296875 15.5 10.640625 
Q 11.703125 15 11.5 21.90625 
L 3 21.90625 
Q 2.90625 16.40625 4.546875 12.09375 
Q 6.203125 7.796875 9.296875 4.84375 
Q 12.40625 1.90625 16.796875 0.40625 
Q 21.203125 -1.09375 26.59375 -1.09375 
Q 31.59375 -1.09375 36.046875 0.25 
Q 40.5 1.59375 43.796875 4.296875 
Q 47.09375 7 49.046875 11.046875 
Q 51 15.09375 51 20.40625 
Q 51 26.796875 47.84375 31.5 
Q 44.703125 36.203125 38.203125 37.59375 
L 38.203125 37.796875 
Q 42.40625 39.703125 45.203125 43.390625 
Q 48 47.09375 48 51.90625 
Q 48 56.796875 46.34375 60.390625 
Q 44.703125 64 41.796875 66.296875 
Q 38.90625 68.59375 34.953125 69.75 
Q 31 70.90625 26.40625 70.90625 
Q 21.09375 70.90625 17.046875 69.203125 
Q 13 67.5 10.296875 64.5 
Q 7.59375 61.5 6.140625 57.296875 
Q 4.703125 53.09375 4.5 48 
L 13 48 
Q 13 51.09375 13.796875 53.890625 
Q 14.59375 56.703125 16.25 58.796875 
Q 17.90625 60.90625 20.453125 62.15625 
Q 23 63.40625 26.40625 63.40625 
Q 31.796875 63.40625 35.390625 60.546875 
Q 39 57.703125 39 52 
Q 39 49.203125 37.890625 47 
Q 36.796875 44.796875 34.9375 43.34375 
Q 33.09375 41.90625 30.640625 41.15625 
Q 28.203125 40.40625 25.5 40.40625 
L 23.703125 40.40625 
Q 23.203125 40.40625 22.703125 40.40625 
Q 22.296875 40.40625 21.796875 40.5 
z
" id="HelveticaNeue-51"/>
      </defs>
      <g style="fill:#555555;" transform="translate(21.982812 77.086102)scale(0.1 -0.1)">
       <use xlink:href="#HelveticaNeue-48"/>
       <use x="55.599991" xlink:href="#HelveticaNeue-46"/>
       <use x="83.399979" xlink:href="#HelveticaNeue-48"/>
       <use x="138.999969" xlink:href="#HelveticaNeue-51"/>
       <use x="194.59996" xlink:href="#HelveticaNeue-48"/>
      </g>
     </g>
    </g>
    <g id="ytick_8">
     <g id="line2d_27">
      <path clip-path="url(#pf2ab348a6f)" d="M 54 43.768421 
L 388.8 43.768421 
" style="fill:none;stroke:#eeeeee;stroke-linecap:square;stroke-width:0.8;"/>
     </g>
     <g id="line2d_28">
      <g>
       <use style="fill:#555555;stroke:#555555;stroke-width:0.8;" x="54" xlink:href="#m70819a60b3" y="43.768421"/>
      </g>
     </g>
     <g id="text_15">
      <!-- 0.035 -->
      <g style="fill:#555555;" transform="translate(21.982812 47.338734)scale(0.1 -0.1)">
       <use xlink:href="#HelveticaNeue-48"/>
       <use x="55.599991" xlink:href="#HelveticaNeue-46"/>
       <use x="83.399979" xlink:href="#HelveticaNeue-48"/>
       <use x="138.999969" xlink:href="#HelveticaNeue-51"/>
       <use x="194.59996" xlink:href="#HelveticaNeue-53"/>
      </g>
     </g>
    </g>
    <g id="text_16">
     <!-- Mass of households, $g(\varepsilon,a)$ -->
     <defs>
      <path d="M 8 71.40625 
L 8 0 
L 17 0 
L 17 59.40625 
L 17.203125 59.40625 
L 39.5 0 
L 47.59375 0 
L 69.90625 59.40625 
L 70.09375 59.40625 
L 70.09375 0 
L 79.09375 0 
L 79.09375 71.40625 
L 66.09375 71.40625 
L 43.5 11.40625 
L 21 71.40625 
z
" id="HelveticaNeue-77"/>
      <path d="M 52.203125 0.203125 
Q 50 -1.09375 46.09375 -1.09375 
Q 42.796875 -1.09375 40.84375 0.75 
Q 38.90625 2.59375 38.90625 6.796875 
Q 35.40625 2.59375 30.75 0.75 
Q 26.09375 -1.09375 20.703125 -1.09375 
Q 17.203125 -1.09375 14.046875 -0.296875 
Q 10.90625 0.5 8.59375 2.203125 
Q 6.296875 3.90625 4.9375 6.65625 
Q 3.59375 9.40625 3.59375 13.296875 
Q 3.59375 17.703125 5.09375 20.5 
Q 6.59375 23.296875 9.046875 25.046875 
Q 11.5 26.796875 14.640625 27.6875 
Q 17.796875 28.59375 21.09375 29.203125 
Q 24.59375 29.90625 27.75 30.25 
Q 30.90625 30.59375 33.296875 31.25 
Q 35.703125 31.90625 37.09375 33.15625 
Q 38.5 34.40625 38.5 36.796875 
Q 38.5 39.59375 37.453125 41.296875 
Q 36.40625 43 34.75 43.890625 
Q 33.09375 44.796875 31.046875 45.09375 
Q 29 45.40625 27 45.40625 
Q 21.59375 45.40625 18 43.34375 
Q 14.40625 41.296875 14.09375 35.59375 
L 5.59375 35.59375 
Q 5.796875 40.40625 7.59375 43.703125 
Q 9.40625 47 12.40625 49.046875 
Q 15.40625 51.09375 19.25 52 
Q 23.09375 52.90625 27.5 52.90625 
Q 31 52.90625 34.453125 52.40625 
Q 37.90625 51.90625 40.703125 50.34375 
Q 43.5 48.796875 45.203125 46 
Q 46.90625 43.203125 46.90625 38.703125 
L 46.90625 12.09375 
Q 46.90625 9.09375 47.25 7.6875 
Q 47.59375 6.296875 49.59375 6.296875 
Q 50.703125 6.296875 52.203125 6.796875 
z
M 38.40625 26.703125 
Q 36.796875 25.5 34.1875 24.953125 
Q 31.59375 24.40625 28.75 24.046875 
Q 25.90625 23.703125 23 23.25 
Q 20.09375 22.796875 17.796875 21.796875 
Q 15.5 20.796875 14.046875 18.9375 
Q 12.59375 17.09375 12.59375 13.90625 
Q 12.59375 11.796875 13.4375 10.34375 
Q 14.296875 8.90625 15.640625 8 
Q 17 7.09375 18.796875 6.6875 
Q 20.59375 6.296875 22.59375 6.296875 
Q 26.796875 6.296875 29.796875 7.4375 
Q 32.796875 8.59375 34.6875 10.34375 
Q 36.59375 12.09375 37.5 14.140625 
Q 38.40625 16.203125 38.40625 18 
z
" id="HelveticaNeue-97"/>
      <path d="M 12.59375 25.796875 
Q 12.59375 30.5 13.84375 34.140625 
Q 15.09375 37.796875 17.296875 40.296875 
Q 19.5 42.796875 22.453125 44.09375 
Q 25.40625 45.40625 28.703125 45.40625 
Q 32 45.40625 34.953125 44.09375 
Q 37.90625 42.796875 40.09375 40.296875 
Q 42.296875 37.796875 43.546875 34.140625 
Q 44.796875 30.5 44.796875 25.796875 
Q 44.796875 21.09375 43.546875 17.4375 
Q 42.296875 13.796875 40.09375 11.34375 
Q 37.90625 8.90625 34.953125 7.59375 
Q 32 6.296875 28.703125 6.296875 
Q 25.40625 6.296875 22.453125 7.59375 
Q 19.5 8.90625 17.296875 11.34375 
Q 15.09375 13.796875 13.84375 17.4375 
Q 12.59375 21.09375 12.59375 25.796875 
z
M 3.59375 25.796875 
Q 3.59375 20.09375 5.1875 15.1875 
Q 6.796875 10.296875 10 6.640625 
Q 13.203125 3 17.890625 0.953125 
Q 22.59375 -1.09375 28.703125 -1.09375 
Q 34.90625 -1.09375 39.546875 0.953125 
Q 44.203125 3 47.390625 6.640625 
Q 50.59375 10.296875 52.1875 15.1875 
Q 53.796875 20.09375 53.796875 25.796875 
Q 53.796875 31.5 52.1875 36.453125 
Q 50.59375 41.40625 47.390625 45.046875 
Q 44.203125 48.703125 39.546875 50.796875 
Q 34.90625 52.90625 28.703125 52.90625 
Q 22.59375 52.90625 17.890625 50.796875 
Q 13.203125 48.703125 10 45.046875 
Q 6.796875 41.40625 5.1875 36.453125 
Q 3.59375 31.5 3.59375 25.796875 
z
" id="HelveticaNeue-111"/>
      <path d="M 9.90625 44.203125 
L 9.90625 0 
L 18.40625 0 
L 18.40625 44.203125 
L 28.40625 44.203125 
L 28.40625 51.703125 
L 18.40625 51.703125 
L 18.40625 58.90625 
Q 18.40625 62.296875 20.09375 63.5 
Q 21.796875 64.703125 24.90625 64.703125 
Q 26 64.703125 27.296875 64.546875 
Q 28.59375 64.40625 29.703125 64 
L 29.703125 71.40625 
Q 28.5 71.796875 26.953125 72 
Q 25.40625 72.203125 24.203125 72.203125 
Q 17.203125 72.203125 13.546875 68.953125 
Q 9.90625 65.703125 9.90625 59.40625 
L 9.90625 51.703125 
L 1.203125 51.703125 
L 1.203125 44.203125 
z
" id="HelveticaNeue-102"/>
      <path d="M 6.40625 71.40625 
L 6.40625 0 
L 14.90625 0 
L 14.90625 29.203125 
Q 14.90625 32.703125 15.84375 35.640625 
Q 16.796875 38.59375 18.6875 40.796875 
Q 20.59375 43 23.4375 44.203125 
Q 26.296875 45.40625 30.203125 45.40625 
Q 35.09375 45.40625 37.890625 42.59375 
Q 40.703125 39.796875 40.703125 35 
L 40.703125 0 
L 49.203125 0 
L 49.203125 34 
Q 49.203125 38.203125 48.34375 41.640625 
Q 47.5 45.09375 45.390625 47.59375 
Q 43.296875 50.09375 39.890625 51.5 
Q 36.5 52.90625 31.40625 52.90625 
Q 29.09375 52.90625 26.640625 52.40625 
Q 24.203125 51.90625 21.953125 50.84375 
Q 19.703125 49.796875 17.890625 48.140625 
Q 16.09375 46.5 15.09375 44.09375 
L 14.90625 44.09375 
L 14.90625 71.40625 
z
" id="HelveticaNeue-104"/>
      <path d="M 49.203125 0 
L 49.203125 51.703125 
L 40.703125 51.703125 
L 40.703125 22.5 
Q 40.703125 19 39.75 16.046875 
Q 38.796875 13.09375 36.890625 10.890625 
Q 35 8.703125 32.140625 7.5 
Q 29.296875 6.296875 25.40625 6.296875 
Q 20.5 6.296875 17.703125 9.09375 
Q 14.90625 11.90625 14.90625 16.703125 
L 14.90625 51.703125 
L 6.40625 51.703125 
L 6.40625 17.703125 
Q 6.40625 13.5 7.25 10.046875 
Q 8.09375 6.59375 10.1875 4.09375 
Q 12.296875 1.59375 15.6875 0.25 
Q 19.09375 -1.09375 24.203125 -1.09375 
Q 29.90625 -1.09375 34.09375 1.15625 
Q 38.296875 3.40625 41 8.203125 
L 41.203125 8.203125 
L 41.203125 0 
z
" id="HelveticaNeue-117"/>
      <path d="M 6.90625 71.40625 
L 6.90625 0 
L 15.40625 0 
L 15.40625 71.40625 
z
" id="HelveticaNeue-108"/>
      <path d="M 12.59375 25.40625 
Q 12.59375 29.203125 13.390625 32.796875 
Q 14.203125 36.40625 16 39.203125 
Q 17.796875 42 20.796875 43.703125 
Q 23.796875 45.40625 28.09375 45.40625 
Q 32.5 45.40625 35.59375 43.75 
Q 38.703125 42.09375 40.640625 39.390625 
Q 42.59375 36.703125 43.5 33.140625 
Q 44.40625 29.59375 44.40625 25.796875 
Q 44.40625 22.203125 43.546875 18.703125 
Q 42.703125 15.203125 40.796875 12.453125 
Q 38.90625 9.703125 35.90625 8 
Q 32.90625 6.296875 28.59375 6.296875 
Q 24.5 6.296875 21.453125 7.890625 
Q 18.40625 9.5 16.453125 12.203125 
Q 14.5 14.90625 13.546875 18.34375 
Q 12.59375 21.796875 12.59375 25.40625 
z
M 52.59375 0 
L 52.59375 71.40625 
L 44.09375 71.40625 
L 44.09375 44.796875 
L 43.90625 44.796875 
Q 42.5 47.09375 40.453125 48.640625 
Q 38.40625 50.203125 36.09375 51.140625 
Q 33.796875 52.09375 31.5 52.5 
Q 29.203125 52.90625 27.203125 52.90625 
Q 21.296875 52.90625 16.84375 50.75 
Q 12.40625 48.59375 9.453125 44.9375 
Q 6.5 41.296875 5.046875 36.390625 
Q 3.59375 31.5 3.59375 26 
Q 3.59375 20.5 5.09375 15.59375 
Q 6.59375 10.703125 9.546875 7 
Q 12.5 3.296875 16.953125 1.09375 
Q 21.40625 -1.09375 27.40625 -1.09375 
Q 32.796875 -1.09375 37.296875 0.796875 
Q 41.796875 2.703125 43.90625 7 
L 44.09375 7 
L 44.09375 0 
z
" id="HelveticaNeue-100"/>
      <path d="M 41.796875 9.28125 
Q 37.59375 4.5 33.25 2.25 
Q 28.90625 0 23.78125 0 
Q 14.5 0 9.109375 5.984375 
Q 3.71875 11.96875 3.71875 22.3125 
Q 3.71875 27.828125 5.59375 33.375 
Q 7.46875 38.921875 10.984375 43.796875 
Q 15.28125 49.703125 20.84375 52.796875 
Q 26.421875 55.90625 32.8125 55.90625 
Q 38.578125 55.90625 42.5 53.65625 
Q 46.4375 51.421875 49.125 46.578125 
L 50.59375 54.6875 
L 68.21875 54.6875 
L 58.984375 7.171875 
Q 56.15625 -7.515625 46.875 -14.546875 
Q 37.59375 -21.578125 21.09375 -21.578125 
Q 16.015625 -21.578125 11.296875 -20.796875 
Q 6.59375 -20.015625 2 -18.40625 
L 4.59375 -4.78125 
Q 8.734375 -7.421875 12.890625 -8.71875 
Q 17.046875 -10.015625 21.390625 -10.015625 
Q 30.078125 -10.015625 34.734375 -6.296875 
Q 39.40625 -2.59375 41.015625 5.515625 
z
M 36.921875 43.3125 
Q 30.46875 43.3125 26.1875 37.5 
Q 21.921875 31.6875 21.921875 22.90625 
Q 21.921875 17.921875 24.21875 15.3125 
Q 26.515625 12.703125 30.90625 12.703125 
Q 37.3125 12.703125 41.609375 18.484375 
Q 45.90625 24.265625 45.90625 32.90625 
Q 45.90625 37.984375 43.609375 40.640625 
Q 41.3125 43.3125 36.921875 43.3125 
z
" id="DejaVuSans-BoldOblique-103"/>
      <path d="M 37.703125 -13.1875 
L 23.1875 -13.1875 
Q 15.71875 -1.125 12.15625 9.734375 
Q 8.59375 20.609375 8.59375 31.296875 
Q 8.59375 42 12.171875 52.953125 
Q 15.765625 63.921875 23.1875 75.875 
L 37.703125 75.875 
Q 31.453125 64.3125 28.328125 53.25 
Q 25.203125 42.1875 25.203125 31.390625 
Q 25.203125 20.609375 28.296875 9.515625 
Q 31.390625 -1.5625 37.703125 -13.1875 
z
" id="DejaVuSans-Bold-40"/>
      <path d="M 25.828125 -1.421875 
Q 2.734375 -1.421875 2.734375 12.015625 
Q 2.734375 19.671875 7.90625 24.515625 
Q 11.671875 28.03125 17.875 29.5 
Q 9.234375 31.59375 9.234375 38.921875 
Q 9.234375 40.234375 9.515625 41.65625 
Q 10.9375 49.03125 17.28125 52.515625 
Q 23.640625 56 34.96875 56 
Q 43.5 56 51.953125 53.65625 
L 49.703125 42 
Q 47.015625 43.3125 43.015625 44.09375 
Q 39.015625 44.875 35.25 44.875 
Q 31.5 44.875 28.46875 43.171875 
Q 24.953125 41.15625 24.953125 39.0625 
Q 24.953125 36.96875 27.078125 35.515625 
Q 29.203125 34.078125 34.90625 34.078125 
L 40.96875 34.078125 
L 38.8125 23.140625 
L 33.0625 23.140625 
Q 26.765625 23.140625 23.296875 21.296875 
Q 19.09375 19.09375 19.09375 15.625 
Q 19.09375 13.375 21.671875 11.59375 
Q 24.265625 9.8125 29 9.8125 
Q 38.421875 9.8125 46.6875 13.625 
L 44.28125 1.3125 
Q 34.96875 -1.421875 25.828125 -1.421875 
z
" id="DejaVuSans-BoldOblique-949"/>
      <path d="M 10.203125 18.890625 
L 27.78125 18.890625 
L 27.78125 4 
L 15.71875 -14.203125 
L 5.328125 -14.203125 
L 10.203125 4 
z
" id="DejaVuSans-Bold-44"/>
      <path d="M 8.015625 -13.1875 
Q 14.265625 -1.5625 17.390625 9.515625 
Q 20.515625 20.609375 20.515625 31.390625 
Q 20.515625 42.1875 17.390625 53.25 
Q 14.265625 64.3125 8.015625 75.875 
L 22.515625 75.875 
Q 29.9375 63.921875 33.515625 52.953125 
Q 37.109375 42 37.109375 31.296875 
Q 37.109375 20.609375 33.546875 9.734375 
Q 29.984375 -1.125 22.515625 -13.1875 
z
" id="DejaVuSans-Bold-41"/>
     </defs>
     <g style="fill:#555555;" transform="translate(15.782812 204.01)rotate(-90)scale(0.1 -0.1)">
      <use transform="translate(0 0.125)" xlink:href="#HelveticaNeue-77"/>
      <use transform="translate(87.099991 0.125)" xlink:href="#HelveticaNeue-97"/>
      <use transform="translate(140.799988 0.125)" xlink:href="#HelveticaNeue-115"/>
      <use transform="translate(190.799973 0.125)" xlink:href="#HelveticaNeue-115"/>
      <use transform="translate(240.799957 0.125)" xlink:href="#HelveticaNeue-32"/>
      <use transform="translate(268.599945 0.125)" xlink:href="#HelveticaNeue-111"/>
      <use transform="translate(325.999939 0.125)" xlink:href="#HelveticaNeue-102"/>
      <use transform="translate(355.59993 0.125)" xlink:href="#HelveticaNeue-32"/>
      <use transform="translate(383.399918 0.125)" xlink:href="#HelveticaNeue-104"/>
      <use transform="translate(438.999908 0.125)" xlink:href="#HelveticaNeue-111"/>
      <use transform="translate(496.399902 0.125)" xlink:href="#HelveticaNeue-117"/>
      <use transform="translate(551.999893 0.125)" xlink:href="#HelveticaNeue-115"/>
      <use transform="translate(601.999878 0.125)" xlink:href="#HelveticaNeue-101"/>
      <use transform="translate(655.699875 0.125)" xlink:href="#HelveticaNeue-104"/>
      <use transform="translate(711.299866 0.125)" xlink:href="#HelveticaNeue-111"/>
      <use transform="translate(768.69986 0.125)" xlink:href="#HelveticaNeue-108"/>
      <use transform="translate(790.899857 0.125)" xlink:href="#HelveticaNeue-100"/>
      <use transform="translate(850.199844 0.125)" xlink:href="#HelveticaNeue-115"/>
      <use transform="translate(900.199829 0.125)" xlink:href="#HelveticaNeue-44"/>
      <use transform="translate(927.999817 0.125)" xlink:href="#HelveticaNeue-32"/>
      <use transform="translate(955.799805 0.125)" xlink:href="#DejaVuSans-BoldOblique-103"/>
      <use transform="translate(1027.381836 0.125)" xlink:href="#DejaVuSans-Bold-40"/>
      <use transform="translate(1073.084961 0.125)" xlink:href="#DejaVuSans-BoldOblique-949"/>
      <use transform="translate(1128.749023 0.125)" xlink:href="#DejaVuSans-Bold-44"/>
      <use transform="translate(1187.577148 0.125)" xlink:href="#DejaVuSans-BoldOblique-97"/>
      <use transform="translate(1255.057617 0.125)" xlink:href="#DejaVuSans-Bold-41"/>
     </g>
    </g>
   </g>
   <g id="line2d_29">
    <path clip-path="url(#pf2ab348a6f)" d="M 54 247.251882 
L 57.757576 248.597245 
L 61.515152 244.175258 
L 65.272727 243.534567 
L 69.030303 240.25323 
L 72.787879 237.702278 
L 76.545455 234.147641 
L 80.30303 230.727723 
L 84.060606 226.821575 
L 87.818182 222.524028 
L 91.575758 217.452804 
L 95.333333 211.904008 
L 99.090909 203.913245 
L 102.848485 197.24329 
L 106.606061 190.142229 
L 110.363636 182.520945 
L 114.121212 174.522519 
L 117.878788 166.287527 
L 121.636364 157.748592 
L 125.393939 148.906743 
L 129.151515 139.799154 
L 132.909091 130.02379 
L 136.666667 120.60657 
L 140.424242 111.389501 
L 144.181818 102.416019 
L 147.939394 93.863895 
L 151.69697 85.898274 
L 155.454545 78.651976 
L 159.212121 72.216186 
L 162.969697 66.645114 
L 166.727273 61.972506 
L 170.484848 58.23339 
L 174.242424 55.483002 
L 178 53.80641 
L 181.757576 53.315246 
L 185.515152 54.131273 
L 189.272727 56.359825 
L 193.030303 60.059643 
L 196.787879 65.218112 
L 200.545455 71.740685 
L 204.30303 79.459109 
L 208.060606 88.156279 
L 211.818182 97.599355 
L 215.575758 107.570508 
L 219.333333 117.886974 
L 223.090909 128.406948 
L 226.848485 139.02259 
L 230.606061 149.644419 
L 234.363636 160.182852 
L 238.121212 170.53296 
L 241.878788 180.567831 
L 245.636364 190.143523 
L 249.393939 199.114574 
L 253.151515 207.354695 
L 256.909091 214.775109 
L 260.666667 221.334348 
L 264.424242 227.037408 
L 268.181818 231.926412 
L 271.939394 236.067165 
L 275.69697 239.535914 
L 279.454545 242.409199 
L 283.212121 244.758089 
L 286.969697 246.646706 
L 290.727273 248.133849 
L 294.484848 249.275782 
L 298.242424 250.128121 
L 302 250.745612 
L 305.757576 251.180005 
L 309.515152 251.477285 
L 313.272727 251.675644 
L 317.030303 251.804852 
L 320.787879 251.886912 
L 324.545455 251.937465 
L 328.30303 251.967378 
L 332.060606 251.984141 
L 335.818182 251.992895 
L 339.575758 251.997092 
L 343.333333 251.998919 
L 347.090909 251.999638 
L 350.848485 251.999892 
L 354.606061 251.999973 
L 358.363636 251.999995 
L 362.121212 251.999999 
L 365.878788 252 
L 369.636364 252 
L 373.393939 252 
L 377.151515 252 
L 380.909091 252 
L 384.666667 252 
L 388.424242 252 
L 392.181818 252 
L 395.939394 252 
L 399.69697 252 
L 403.454545 252 
L 407.212121 252 
L 410.969697 252 
L 414.727273 252 
L 418.484848 252 
L 422.242424 252 
L 426 252 
" style="fill:none;stroke:#b3220f;stroke-linecap:square;stroke-width:1.5;"/>
   </g>
   <g id="line2d_30">
    <path clip-path="url(#pf2ab348a6f)" d="M 54 247.349735 
L 57.757576 246.351383 
L 61.515152 245.165881 
L 65.272727 243.76517 
L 69.030303 242.118693 
L 72.787879 240.193595 
L 76.545455 237.955043 
L 80.30303 235.366698 
L 84.060606 232.391346 
L 87.818182 228.991716 
L 91.575758 225.131483 
L 95.333333 220.776464 
L 99.090909 215.896001 
L 102.848485 210.46452 
L 106.606061 204.463218 
L 110.363636 197.881863 
L 114.121212 190.720628 
L 117.878788 182.991899 
L 121.636364 174.721969 
L 125.393939 165.952527 
L 129.151515 156.741841 
L 132.909091 147.165521 
L 136.666667 137.316778 
L 140.424242 127.306069 
L 144.181818 117.260067 
L 147.939394 107.319895 
L 151.69697 97.63861 
L 155.454545 88.377954 
L 159.212121 79.704425 
L 162.969697 71.784768 
L 166.727273 64.78104 
L 170.484848 58.845416 
L 174.242424 54.114959 
L 178 50.706586 
L 181.757576 48.712482 
L 185.515152 48.196187 
L 189.272727 49.189591 
L 193.030303 51.691022 
L 196.787879 55.664549 
L 200.545455 61.040589 
L 204.30303 67.717821 
L 208.060606 75.566343 
L 211.818182 84.431935 
L 215.575758 94.141238 
L 219.333333 104.507598 
L 223.090909 115.337295 
L 226.848485 126.435842 
L 230.606061 137.614079 
L 234.363636 148.69376 
L 238.121212 159.512393 
L 241.878788 169.927168 
L 245.636364 179.817803 
L 249.393939 189.088295 
L 253.151515 197.667535 
L 256.909091 205.508898 
L 260.666667 212.588892 
L 264.424242 218.905049 
L 268.181818 224.473246 
L 271.939394 229.324633 
L 275.69697 233.50239 
L 279.454545 237.05848 
L 283.212121 240.050556 
L 286.969697 242.539147 
L 290.727273 244.585218 
L 294.484848 246.248144 
L 298.242424 247.584144 
L 302 248.645135 
L 305.757576 249.478004 
L 309.515152 250.124234 
L 313.272727 250.619825 
L 317.030303 250.995463 
L 320.787879 251.276846 
L 324.545455 251.485146 
L 328.30303 251.637521 
L 332.060606 251.747663 
L 335.818182 251.826326 
L 339.575758 251.881831 
L 343.333333 251.920524 
L 347.090909 251.947168 
L 350.848485 251.965292 
L 354.606061 251.977467 
L 358.363636 251.985546 
L 362.121212 251.99084 
L 365.878788 251.994265 
L 369.636364 251.996454 
L 373.393939 251.997834 
L 377.151515 251.998693 
L 380.909091 251.999222 
L 384.666667 251.999542 
L 388.424242 251.999734 
L 392.181818 251.999848 
L 395.939394 251.999914 
L 399.69697 251.999952 
L 403.454545 251.999973 
L 407.212121 251.999986 
L 410.969697 251.999992 
L 414.727273 251.999996 
L 418.484848 251.999998 
L 422.242424 251.999999 
L 426 251.999999 
" style="fill:none;stroke:#f16e53;stroke-linecap:square;stroke-width:1.5;"/>
   </g>
   <g id="patch_3">
    <path d="M 54 252 
L 54 25.92 
" style="fill:none;stroke:#555555;stroke-linecap:square;stroke-linejoin:miter;"/>
   </g>
   <g id="patch_4">
    <path d="M 54 252 
L 388.8 252 
" style="fill:none;stroke:#555555;stroke-linecap:square;stroke-linejoin:miter;"/>
   </g>
   <g id="text_17">
    <!-- Invariant distribution of households (employed) -->
    <defs>
     <path d="M 8.203125 71.40625 
L 8.203125 0 
L 17.703125 0 
L 17.703125 71.40625 
z
" id="HelveticaNeue-73"/>
     <path d="M 6.40625 51.703125 
L 6.40625 0 
L 14.90625 0 
L 14.90625 29.203125 
Q 14.90625 32.703125 15.84375 35.640625 
Q 16.796875 38.59375 18.6875 40.796875 
Q 20.59375 43 23.4375 44.203125 
Q 26.296875 45.40625 30.203125 45.40625 
Q 35.09375 45.40625 37.890625 42.59375 
Q 40.703125 39.796875 40.703125 35 
L 40.703125 0 
L 49.203125 0 
L 49.203125 34 
Q 49.203125 38.203125 48.34375 41.640625 
Q 47.5 45.09375 45.390625 47.59375 
Q 43.296875 50.09375 39.890625 51.5 
Q 36.5 52.90625 31.40625 52.90625 
Q 19.90625 52.90625 14.59375 43.5 
L 14.40625 43.5 
L 14.40625 51.703125 
z
" id="HelveticaNeue-110"/>
     <path d="M 29.703125 0 
L 48.59375 51.703125 
L 39.703125 51.703125 
L 25.59375 8.59375 
L 25.40625 8.59375 
L 10.90625 51.703125 
L 1.40625 51.703125 
L 20.59375 0 
z
" id="HelveticaNeue-118"/>
     <path d="M 6.09375 51.703125 
L 6.09375 0 
L 14.59375 0 
L 14.59375 23 
Q 14.59375 28 15.59375 31.84375 
Q 16.59375 35.703125 18.796875 38.390625 
Q 21 41.09375 24.59375 42.5 
Q 28.203125 43.90625 33.296875 43.90625 
L 33.296875 52.90625 
Q 26.40625 53.09375 21.90625 50.09375 
Q 17.40625 47.09375 14.296875 40.796875 
L 14.09375 40.796875 
L 14.09375 51.703125 
z
" id="HelveticaNeue-114"/>
     <path d="M 15.40625 61 
L 15.40625 71.40625 
L 6.90625 71.40625 
L 6.90625 61 
z
M 6.90625 51.703125 
L 6.90625 0 
L 15.40625 0 
L 15.40625 51.703125 
z
" id="HelveticaNeue-105"/>
     <path d="M 6.703125 71.40625 
L 6.703125 0 
L 15.203125 0 
L 15.203125 6.90625 
L 15.40625 6.90625 
Q 16.796875 4.59375 18.84375 3.046875 
Q 20.90625 1.5 23.203125 0.59375 
Q 25.5 -0.296875 27.84375 -0.6875 
Q 30.203125 -1.09375 32.09375 -1.09375 
Q 38 -1.09375 42.453125 1 
Q 46.90625 3.09375 49.84375 6.75 
Q 52.796875 10.40625 54.25 15.296875 
Q 55.703125 20.203125 55.703125 25.703125 
Q 55.703125 31.203125 54.203125 36.09375 
Q 52.703125 41 49.75 44.75 
Q 46.796875 48.5 42.34375 50.703125 
Q 37.90625 52.90625 31.90625 52.90625 
Q 26.5 52.90625 22 50.953125 
Q 17.5 49 15.40625 44.703125 
L 15.203125 44.703125 
L 15.203125 71.40625 
z
M 46.703125 26.296875 
Q 46.703125 22.5 45.890625 18.890625 
Q 45.09375 15.296875 43.296875 12.5 
Q 41.5 9.703125 38.546875 8 
Q 35.59375 6.296875 31.203125 6.296875 
Q 26.796875 6.296875 23.6875 7.9375 
Q 20.59375 9.59375 18.640625 12.296875 
Q 16.703125 15 15.796875 18.546875 
Q 14.90625 22.09375 14.90625 25.90625 
Q 14.90625 29.5 15.75 33 
Q 16.59375 36.5 18.5 39.25 
Q 20.40625 42 23.40625 43.703125 
Q 26.40625 45.40625 30.703125 45.40625 
Q 34.796875 45.40625 37.84375 43.796875 
Q 40.90625 42.203125 42.84375 39.5 
Q 44.796875 36.796875 45.75 33.34375 
Q 46.703125 29.90625 46.703125 26.296875 
z
" id="HelveticaNeue-98"/>
     <path d="M 20.40625 -19.703125 
L 26.90625 -19.703125 
Q 19.796875 -8.203125 16.75 3.09375 
Q 13.703125 14.40625 13.703125 27 
Q 13.703125 39.296875 16.703125 50.5 
Q 19.703125 61.703125 26.90625 73.09375 
L 20.40625 73.09375 
Q 12.59375 62.796875 8.640625 50.796875 
Q 4.703125 38.796875 4.703125 27 
Q 4.703125 20.40625 5.796875 14.40625 
Q 6.90625 8.40625 8.953125 2.703125 
Q 11 -3 13.890625 -8.546875 
Q 16.796875 -14.09375 20.40625 -19.703125 
z
" id="HelveticaNeue-40"/>
     <path d="M 6.40625 51.703125 
L 6.40625 0 
L 14.90625 0 
L 14.90625 32.203125 
Q 14.90625 33.703125 15.65625 35.953125 
Q 16.40625 38.203125 18.046875 40.296875 
Q 19.703125 42.40625 22.34375 43.90625 
Q 25 45.40625 28.703125 45.40625 
Q 31.59375 45.40625 33.4375 44.546875 
Q 35.296875 43.703125 36.390625 42.140625 
Q 37.5 40.59375 37.953125 38.5 
Q 38.40625 36.40625 38.40625 33.90625 
L 38.40625 0 
L 46.90625 0 
L 46.90625 32.203125 
Q 46.90625 38.203125 50.5 41.796875 
Q 54.09375 45.40625 60.40625 45.40625 
Q 63.5 45.40625 65.453125 44.5 
Q 67.40625 43.59375 68.5 42.046875 
Q 69.59375 40.5 70 38.390625 
Q 70.40625 36.296875 70.40625 33.90625 
L 70.40625 0 
L 78.90625 0 
L 78.90625 37.90625 
Q 78.90625 41.90625 77.65625 44.75 
Q 76.40625 47.59375 74.15625 49.390625 
Q 71.90625 51.203125 68.75 52.046875 
Q 65.59375 52.90625 61.703125 52.90625 
Q 56.59375 52.90625 52.34375 50.59375 
Q 48.09375 48.296875 45.5 44.09375 
Q 43.90625 48.90625 40 50.90625 
Q 36.09375 52.90625 31.296875 52.90625 
Q 20.40625 52.90625 14.59375 44.09375 
L 14.40625 44.09375 
L 14.40625 51.703125 
z
" id="HelveticaNeue-109"/>
     <path d="M 6.703125 51.703125 
L 6.703125 -19.703125 
L 15.203125 -19.703125 
L 15.203125 6.90625 
L 15.40625 6.90625 
Q 16.796875 4.59375 18.84375 3.046875 
Q 20.90625 1.5 23.203125 0.59375 
Q 25.5 -0.296875 27.84375 -0.6875 
Q 30.203125 -1.09375 32.09375 -1.09375 
Q 38 -1.09375 42.453125 1 
Q 46.90625 3.09375 49.84375 6.75 
Q 52.796875 10.40625 54.25 15.296875 
Q 55.703125 20.203125 55.703125 25.703125 
Q 55.703125 31.203125 54.203125 36.09375 
Q 52.703125 41 49.75 44.75 
Q 46.796875 48.5 42.34375 50.703125 
Q 37.90625 52.90625 31.90625 52.90625 
Q 26.5 52.90625 22 50.953125 
Q 17.5 49 15.40625 44.703125 
L 15.203125 44.703125 
L 15.203125 51.703125 
z
M 46.703125 26.296875 
Q 46.703125 22.5 45.890625 18.890625 
Q 45.09375 15.296875 43.296875 12.5 
Q 41.5 9.703125 38.546875 8 
Q 35.59375 6.296875 31.203125 6.296875 
Q 26.796875 6.296875 23.6875 7.9375 
Q 20.59375 9.59375 18.640625 12.296875 
Q 16.703125 15 15.796875 18.546875 
Q 14.90625 22.09375 14.90625 25.90625 
Q 14.90625 29.5 15.75 33 
Q 16.59375 36.5 18.5 39.25 
Q 20.40625 42 23.40625 43.703125 
Q 26.40625 45.40625 30.703125 45.40625 
Q 34.796875 45.40625 37.84375 43.796875 
Q 40.90625 42.203125 42.84375 39.5 
Q 44.796875 36.796875 45.75 33.34375 
Q 46.703125 29.90625 46.703125 26.296875 
z
" id="HelveticaNeue-112"/>
     <path d="M 26.703125 -6.90625 
Q 25.203125 -10.703125 23.75 -13.296875 
Q 22.296875 -15.90625 20.546875 -17.546875 
Q 18.796875 -19.203125 16.640625 -19.953125 
Q 14.5 -20.703125 11.703125 -20.703125 
Q 10.203125 -20.703125 8.703125 -20.5 
Q 7.203125 -20.296875 5.796875 -19.796875 
L 5.796875 -12 
Q 6.90625 -12.5 8.34375 -12.84375 
Q 9.796875 -13.203125 10.796875 -13.203125 
Q 13.40625 -13.203125 15.15625 -11.953125 
Q 16.90625 -10.703125 17.796875 -8.40625 
L 21.296875 0.296875 
L 0.796875 51.703125 
L 10.40625 51.703125 
L 25.5 9.40625 
L 25.703125 9.40625 
L 40.203125 51.703125 
L 49.203125 51.703125 
z
" id="HelveticaNeue-121"/>
     <path d="M -0.90625 -19.703125 
L 5.5 -19.703125 
Q 13.296875 -9.40625 17.25 2.546875 
Q 21.203125 14.5 21.203125 26.296875 
Q 21.203125 32.90625 20.09375 38.90625 
Q 19 44.90625 16.953125 50.65625 
Q 14.90625 56.40625 12 61.953125 
Q 9.09375 67.5 5.5 73.09375 
L -0.90625 73.09375 
Q 6.09375 61.59375 9.140625 50.25 
Q 12.203125 38.90625 12.203125 26.296875 
Q 12.203125 14.09375 9.203125 2.84375 
Q 6.203125 -8.40625 -0.90625 -19.703125 
z
" id="HelveticaNeue-41"/>
    </defs>
    <g style="fill:#555555;" transform="translate(75.149219 15.92)scale(0.14 -0.14)">
     <use xlink:href="#HelveticaNeue-73"/>
     <use x="25.899994" xlink:href="#HelveticaNeue-110"/>
     <use x="81.499985" xlink:href="#HelveticaNeue-118"/>
     <use x="131.499969" xlink:href="#HelveticaNeue-97"/>
     <use x="185.199966" xlink:href="#HelveticaNeue-114"/>
     <use x="218.499954" xlink:href="#HelveticaNeue-105"/>
     <use x="240.699951" xlink:href="#HelveticaNeue-97"/>
     <use x="294.399948" xlink:href="#HelveticaNeue-110"/>
     <use x="349.999939" xlink:href="#HelveticaNeue-116"/>
     <use x="381.499924" xlink:href="#HelveticaNeue-32"/>
     <use x="409.299911" xlink:href="#HelveticaNeue-100"/>
     <use x="468.599899" xlink:href="#HelveticaNeue-105"/>
     <use x="490.799896" xlink:href="#HelveticaNeue-115"/>
     <use x="540.799881" xlink:href="#HelveticaNeue-116"/>
     <use x="572.299866" xlink:href="#HelveticaNeue-114"/>
     <use x="605.599854" xlink:href="#HelveticaNeue-105"/>
     <use x="627.79985" xlink:href="#HelveticaNeue-98"/>
     <use x="687.099838" xlink:href="#HelveticaNeue-117"/>
     <use x="742.699829" xlink:href="#HelveticaNeue-116"/>
     <use x="774.199814" xlink:href="#HelveticaNeue-105"/>
     <use x="796.399811" xlink:href="#HelveticaNeue-111"/>
     <use x="853.799805" xlink:href="#HelveticaNeue-110"/>
     <use x="909.399796" xlink:href="#HelveticaNeue-32"/>
     <use x="937.199783" xlink:href="#HelveticaNeue-111"/>
     <use x="994.599777" xlink:href="#HelveticaNeue-102"/>
     <use x="1024.199768" xlink:href="#HelveticaNeue-32"/>
     <use x="1051.999756" xlink:href="#HelveticaNeue-104"/>
     <use x="1107.599747" xlink:href="#HelveticaNeue-111"/>
     <use x="1164.999741" xlink:href="#HelveticaNeue-117"/>
     <use x="1220.599731" xlink:href="#HelveticaNeue-115"/>
     <use x="1270.599716" xlink:href="#HelveticaNeue-101"/>
     <use x="1324.299713" xlink:href="#HelveticaNeue-104"/>
     <use x="1379.899704" xlink:href="#HelveticaNeue-111"/>
     <use x="1437.299698" xlink:href="#HelveticaNeue-108"/>
     <use x="1459.499695" xlink:href="#HelveticaNeue-100"/>
     <use x="1518.799683" xlink:href="#HelveticaNeue-115"/>
     <use x="1568.799667" xlink:href="#HelveticaNeue-32"/>
     <use x="1596.599655" xlink:href="#HelveticaNeue-40"/>
     <use x="1622.499649" xlink:href="#HelveticaNeue-101"/>
     <use x="1676.199646" xlink:href="#HelveticaNeue-109"/>
     <use x="1761.499634" xlink:href="#HelveticaNeue-112"/>
     <use x="1820.799622" xlink:href="#HelveticaNeue-108"/>
     <use x="1842.999619" xlink:href="#HelveticaNeue-111"/>
     <use x="1900.399612" xlink:href="#HelveticaNeue-121"/>
     <use x="1950.399597" xlink:href="#HelveticaNeue-101"/>
     <use x="2004.099594" xlink:href="#HelveticaNeue-100"/>
     <use x="2063.399582" xlink:href="#HelveticaNeue-41"/>
    </g>
   </g>
   <g id="legend_1">
    <g id="line2d_31">
     <path d="M 196.4 38.729375 
L 216.4 38.729375 
" style="fill:none;stroke:#b3220f;stroke-linecap:square;stroke-width:1.5;"/>
    </g>
    <g id="line2d_32"/>
    <g id="text_18">
     <!-- Histogram (Young, 2010) -->
     <defs>
      <path d="M 7.796875 71.40625 
L 7.796875 0 
L 17.296875 0 
L 17.296875 32.703125 
L 54.90625 32.703125 
L 54.90625 0 
L 64.40625 0 
L 64.40625 71.40625 
L 54.90625 71.40625 
L 54.90625 40.703125 
L 17.296875 40.703125 
L 17.296875 71.40625 
z
" id="HelveticaNeue-72"/>
      <path d="M 51 4.40625 
L 51 51.703125 
L 43 51.703125 
L 43 44.296875 
L 42.90625 44.296875 
Q 40.59375 48.59375 36.5 50.75 
Q 32.40625 52.90625 27.5 52.90625 
Q 20.796875 52.90625 16.1875 50.34375 
Q 11.59375 47.796875 8.796875 43.84375 
Q 6 39.90625 4.796875 35.046875 
Q 3.59375 30.203125 3.59375 25.59375 
Q 3.59375 20.296875 5.046875 15.546875 
Q 6.5 10.796875 9.390625 7.25 
Q 12.296875 3.703125 16.59375 1.59375 
Q 20.90625 -0.5 26.703125 -0.5 
Q 31.703125 -0.5 36.140625 1.75 
Q 40.59375 4 42.796875 8.796875 
L 43 8.796875 
L 43 5.40625 
Q 43 1.09375 42.140625 -2.5 
Q 41.296875 -6.09375 39.390625 -8.640625 
Q 37.5 -11.203125 34.59375 -12.640625 
Q 31.703125 -14.09375 27.5 -14.09375 
Q 25.40625 -14.09375 23.09375 -13.640625 
Q 20.796875 -13.203125 18.84375 -12.203125 
Q 16.90625 -11.203125 15.546875 -9.59375 
Q 14.203125 -8 14.09375 -5.703125 
L 5.59375 -5.703125 
Q 5.796875 -9.90625 7.796875 -12.796875 
Q 9.796875 -15.703125 12.84375 -17.5 
Q 15.90625 -19.296875 19.65625 -20.09375 
Q 23.40625 -20.90625 27 -20.90625 
Q 39.40625 -20.90625 45.203125 -14.59375 
Q 51 -8.296875 51 4.40625 
z
M 27.203125 6.90625 
Q 23 6.90625 20.203125 8.65625 
Q 17.40625 10.40625 15.703125 13.25 
Q 14 16.09375 13.296875 19.59375 
Q 12.59375 23.09375 12.59375 26.59375 
Q 12.59375 30.296875 13.4375 33.6875 
Q 14.296875 37.09375 16.140625 39.6875 
Q 18 42.296875 20.890625 43.84375 
Q 23.796875 45.40625 27.90625 45.40625 
Q 31.90625 45.40625 34.703125 43.796875 
Q 37.5 42.203125 39.25 39.546875 
Q 41 36.90625 41.796875 33.59375 
Q 42.59375 30.296875 42.59375 26.90625 
Q 42.59375 23.296875 41.75 19.6875 
Q 40.90625 16.09375 39.09375 13.25 
Q 37.296875 10.40625 34.34375 8.65625 
Q 31.40625 6.90625 27.203125 6.90625 
z
" id="HelveticaNeue-103"/>
      <path d="M 37.296875 29.203125 
L 64.59375 71.40625 
L 53.796875 71.40625 
L 32.90625 37.40625 
L 11.5 71.40625 
L 0.203125 71.40625 
L 27.796875 29.203125 
L 27.796875 0 
L 37.296875 0 
z
" id="HelveticaNeue-89"/>
     </defs>
     <g style="fill:#555555;" transform="translate(224.4 42.229375)scale(0.1 -0.1)">
      <use xlink:href="#HelveticaNeue-72"/>
      <use x="72.199982" xlink:href="#HelveticaNeue-105"/>
      <use x="94.399979" xlink:href="#HelveticaNeue-115"/>
      <use x="144.399963" xlink:href="#HelveticaNeue-116"/>
      <use x="175.899948" xlink:href="#HelveticaNeue-111"/>
      <use x="233.299942" xlink:href="#HelveticaNeue-103"/>
      <use x="290.699936" xlink:href="#HelveticaNeue-114"/>
      <use x="323.999924" xlink:href="#HelveticaNeue-97"/>
      <use x="377.699921" xlink:href="#HelveticaNeue-109"/>
      <use x="462.999908" xlink:href="#HelveticaNeue-32"/>
      <use x="490.799896" xlink:href="#HelveticaNeue-40"/>
      <use x="516.69989" xlink:href="#HelveticaNeue-89"/>
      <use x="570.374878" xlink:href="#HelveticaNeue-111"/>
      <use x="627.774872" xlink:href="#HelveticaNeue-117"/>
      <use x="683.374863" xlink:href="#HelveticaNeue-110"/>
      <use x="738.974854" xlink:href="#HelveticaNeue-103"/>
      <use x="796.374847" xlink:href="#HelveticaNeue-44"/>
      <use x="824.174835" xlink:href="#HelveticaNeue-32"/>
      <use x="851.974823" xlink:href="#HelveticaNeue-50"/>
      <use x="907.574814" xlink:href="#HelveticaNeue-48"/>
      <use x="963.174805" xlink:href="#HelveticaNeue-49"/>
      <use x="1018.774796" xlink:href="#HelveticaNeue-48"/>
      <use x="1074.374786" xlink:href="#HelveticaNeue-41"/>
     </g>
    </g>
    <g id="line2d_33">
     <path d="M 196.4 53.129375 
L 216.4 53.129375 
" style="fill:none;stroke:#f16e53;stroke-linecap:square;stroke-width:1.5;"/>
    </g>
    <g id="line2d_34"/>
    <g id="text_19">
     <!-- Parametric Family (Winberry, 2018) -->
     <defs>
      <path d="M 17.296875 37.203125 
L 17.296875 63.40625 
L 35.90625 63.40625 
Q 44 63.40625 47.75 60.046875 
Q 51.5 56.703125 51.5 50.296875 
Q 51.5 43.90625 47.75 40.5 
Q 44 37.09375 35.90625 37.203125 
z
M 7.796875 71.40625 
L 7.796875 0 
L 17.296875 0 
L 17.296875 29.203125 
L 39.09375 29.203125 
Q 49.90625 29.09375 55.453125 34.6875 
Q 61 40.296875 61 50.296875 
Q 61 60.296875 55.453125 65.84375 
Q 49.90625 71.40625 39.09375 71.40625 
z
" id="HelveticaNeue-80"/>
      <path d="M 41.5 35.09375 
L 50.296875 35.09375 
Q 49.796875 39.703125 47.890625 43.046875 
Q 46 46.40625 43.046875 48.59375 
Q 40.09375 50.796875 36.25 51.84375 
Q 32.40625 52.90625 28 52.90625 
Q 21.90625 52.90625 17.296875 50.75 
Q 12.703125 48.59375 9.640625 44.84375 
Q 6.59375 41.09375 5.09375 36.046875 
Q 3.59375 31 3.59375 25.203125 
Q 3.59375 19.40625 5.140625 14.546875 
Q 6.703125 9.703125 9.75 6.203125 
Q 12.796875 2.703125 17.34375 0.796875 
Q 21.90625 -1.09375 27.796875 -1.09375 
Q 37.703125 -1.09375 43.453125 4.09375 
Q 49.203125 9.296875 50.59375 18.90625 
L 41.90625 18.90625 
Q 41.09375 12.90625 37.546875 9.59375 
Q 34 6.296875 27.703125 6.296875 
Q 23.703125 6.296875 20.796875 7.890625 
Q 17.90625 9.5 16.09375 12.140625 
Q 14.296875 14.796875 13.4375 18.1875 
Q 12.59375 21.59375 12.59375 25.203125 
Q 12.59375 29.09375 13.390625 32.75 
Q 14.203125 36.40625 16.046875 39.203125 
Q 17.90625 42 21 43.703125 
Q 24.09375 45.40625 28.703125 45.40625 
Q 34.09375 45.40625 37.296875 42.703125 
Q 40.5 40 41.5 35.09375 
z
" id="HelveticaNeue-99"/>
      <path d="M 7.796875 71.40625 
L 7.796875 0 
L 17.296875 0 
L 17.296875 32.703125 
L 50.09375 32.703125 
L 50.09375 40.703125 
L 17.296875 40.703125 
L 17.296875 63.40625 
L 54.703125 63.40625 
L 54.703125 71.40625 
z
" id="HelveticaNeue-70"/>
      <path d="M 72.296875 0 
L 91.40625 71.40625 
L 81.90625 71.40625 
L 67.40625 12 
L 67.203125 12 
L 51.40625 71.40625 
L 41.09375 71.40625 
L 25.09375 12 
L 24.90625 12 
L 10.90625 71.40625 
L 1.203125 71.40625 
L 19.5 0 
L 29.40625 0 
L 45.90625 60 
L 46.09375 60 
L 62.40625 0 
z
" id="HelveticaNeue-87"/>
     </defs>
     <g style="fill:#555555;" transform="translate(224.4 56.629375)scale(0.1 -0.1)">
      <use xlink:href="#HelveticaNeue-80"/>
      <use x="64.799988" xlink:href="#HelveticaNeue-97"/>
      <use x="118.499985" xlink:href="#HelveticaNeue-114"/>
      <use x="151.799973" xlink:href="#HelveticaNeue-97"/>
      <use x="205.499969" xlink:href="#HelveticaNeue-109"/>
      <use x="290.799957" xlink:href="#HelveticaNeue-101"/>
      <use x="344.499954" xlink:href="#HelveticaNeue-116"/>
      <use x="375.999939" xlink:href="#HelveticaNeue-114"/>
      <use x="409.299927" xlink:href="#HelveticaNeue-105"/>
      <use x="431.499924" xlink:href="#HelveticaNeue-99"/>
      <use x="485.199921" xlink:href="#HelveticaNeue-32"/>
      <use x="512.999908" xlink:href="#HelveticaNeue-70"/>
      <use x="570.399902" xlink:href="#HelveticaNeue-97"/>
      <use x="624.099899" xlink:href="#HelveticaNeue-109"/>
      <use x="709.399887" xlink:href="#HelveticaNeue-105"/>
      <use x="731.599884" xlink:href="#HelveticaNeue-108"/>
      <use x="753.799881" xlink:href="#HelveticaNeue-121"/>
      <use x="803.799866" xlink:href="#HelveticaNeue-32"/>
      <use x="831.599854" xlink:href="#HelveticaNeue-40"/>
      <use x="857.499847" xlink:href="#HelveticaNeue-87"/>
      <use x="950.099838" xlink:href="#HelveticaNeue-105"/>
      <use x="972.299835" xlink:href="#HelveticaNeue-110"/>
      <use x="1027.899826" xlink:href="#HelveticaNeue-98"/>
      <use x="1087.199814" xlink:href="#HelveticaNeue-101"/>
      <use x="1140.899811" xlink:href="#HelveticaNeue-114"/>
      <use x="1174.199799" xlink:href="#HelveticaNeue-114"/>
      <use x="1207.499786" xlink:href="#HelveticaNeue-121"/>
      <use x="1250.124771" xlink:href="#HelveticaNeue-44"/>
      <use x="1277.924759" xlink:href="#HelveticaNeue-32"/>
      <use x="1305.724747" xlink:href="#HelveticaNeue-50"/>
      <use x="1361.324738" xlink:href="#HelveticaNeue-48"/>
      <use x="1416.924728" xlink:href="#HelveticaNeue-49"/>
      <use x="1472.524719" xlink:href="#HelveticaNeue-56"/>
      <use x="1528.12471" xlink:href="#HelveticaNeue-41"/>
     </g>
    </g>
   </g>
  </g>
 </g>
 <defs>
  <clipPath id="pf2ab348a6f">
   <rect height="226.08" width="334.8" x="54" y="25.92"/>
  </clipPath>
 </defs>
</svg>
